<?xml version="1.0" encoding="utf-8"?>
<!-- Generator: Adobe Illustrator 25.2.0, SVG Export Plug-In . SVG Version: 6.00 Build 0)  -->
<svg version="1.1" xmlns="http://www.w3.org/2000/svg" xmlns:xlink="http://www.w3.org/1999/xlink" x="0px" y="0px"
	 viewBox="0 0 48 48" style="enable-background:new 0 0 48 48;" xml:space="preserve">
<style type="text/css">
	.st0{display:none;}
	.st1{display:inline;fill:#333333;}
	.st2{fill:#FFFFFF;}
</style>
<g id="Слой_3" class="st0">
	<rect class="st1" width="48" height="48"/>
</g>
<g id="Слой_1">
	<g>
		<path class="st2" d="M24,6c9.925,0,18,8.075,18,18s-8.075,18-18,18S6,33.925,6,24S14.075,6,24,6 M24,4C12.954,4,4,12.954,4,24
			s8.954,20,20,20s20-8.954,20-20S35.046,4,24,4L24,4z"/>
	</g>
	<path class="st2" d="M49.828,11.177"/>
	<path class="st2" d="M51.275,10.03"/>
	<path class="st2" d="M24,10.875c-5.799,0-10.5,1.568-10.5,3.5v9.917c0,2.965,3.16,11.131,10.5,12.833
		c7.34-1.702,10.5-9.869,10.5-12.833v-9.917C34.5,12.443,29.799,10.875,24,10.875z M24,12.042c6.125,0,9.333,1.734,9.333,2.333
		v9.917c0,2.413-2.527,9.055-8.167,11.257v-3.673h-2.333v3.673c-5.64-2.201-8.167-8.843-8.167-11.257v-9.917
		C14.667,13.776,17.875,12.042,24,12.042z M19.333,16.125c-1.164,0-2.418,0.513-3.5,2.333c1.139-0.793,2.108-1.167,2.917-1.167
		c1.568,0,2.349,1.837,2.589,2.078c0.342,0.342,0.896,0.342,1.24,0c0.342-0.342,0.342-0.896,0-1.24
		C22.364,17.918,21.339,16.125,19.333,16.125z M28.667,16.125c-2.005,0-3.031,1.793-3.245,2.005c-0.342,0.344-0.342,0.898,0,1.24
		c0.344,0.342,0.898,0.342,1.24,0c0.239-0.242,1.021-2.078,2.589-2.078c0.809,0,1.777,0.374,2.917,1.167
		C31.084,16.638,29.831,16.125,28.667,16.125z M18.75,19.625c-0.957,0-1.798,0.346-2.333,0.875c0.535,0.529,1.376,0.875,2.333,0.875
		s1.798-0.346,2.333-0.875C20.548,19.971,19.707,19.625,18.75,19.625z M29.25,19.625c-0.957,0-1.798,0.346-2.333,0.875
		c0.535,0.529,1.376,0.875,2.333,0.875s1.798-0.346,2.333-0.875C31.048,19.971,30.207,19.625,29.25,19.625z M15.833,24.875
		l2.917,4.667h4.083L24,28.375l1.167,1.167h4.083l2.917-4.667l-3.5,2.917h-2.333l-1.75-1.75h-1.167l-1.75,1.75h-2.333L15.833,24.875
		z"/>
</g>
<g id="Слой_2">
	<g>
	</g>
	<g>
	</g>
	<g>
	</g>
	<g>
	</g>
	<g>
	</g>
	<g>
	</g>
	<g>
	</g>
	<g>
	</g>
	<g>
	</g>
	<g>
	</g>
	<g>
	</g>
	<g>
	</g>
	<g>
	</g>
	<g>
	</g>
	<g>
	</g>
</g>
</svg>
