<?xml version="1.0" encoding="utf-8"?>
<!-- Generator: Adobe Illustrator 25.2.0, SVG Export Plug-In . SVG Version: 6.00 Build 0)  -->
<svg version="1.1" xmlns="http://www.w3.org/2000/svg" xmlns:xlink="http://www.w3.org/1999/xlink" x="0px" y="0px"
	 viewBox="0 0 48 48" style="enable-background:new 0 0 48 48;" xml:space="preserve">
<style type="text/css">
	.st0{display:none;}
	.st1{display:inline;fill:#333333;}
	.st2{fill:#FFFFFF;}
	.st3{fill:none;stroke:#FFFFFF;stroke-width:0.5;stroke-linecap:round;stroke-miterlimit:10;}
</style>
<g id="Слой_3" class="st0">
	<rect class="st1" width="48" height="48"/>
</g>
<g id="Слой_1">
	<g>
		<path class="st2" d="M24,6c9.925,0,18,8.075,18,18s-8.075,18-18,18S6,33.925,6,24S14.075,6,24,6 M24,4C12.954,4,4,12.954,4,24
			s8.954,20,20,20s20-8.954,20-20S35.046,4,24,4L24,4z"/>
	</g>
	<path class="st3" d="M24,17.153"/>
	<path class="st3" d="M26.025,17.783"/>
</g>
<g id="Слой_2">
	<g>
		<path class="st2" d="M37.573,26.097c-1.143,3.17-3.288,5.298-6.497,6.261c-0.716,0.215-0.595,0.704-0.582,1.179
			c0.028,1.008-0.025,1.993-1.163,2.367c-1.147,0.376-1.812-0.42-2.315-1.247c-0.671-1.105-1.514-1.333-2.721-1.031
			c-1.235,0.31-2.532,0.312-3.778,0.001c-0.736-0.184-1.078,0.037-1.323,0.721c-0.32,0.892-0.791,1.718-1.912,1.633
			c-1.207-0.091-1.442-1.085-1.688-2.033c-0.046-0.177-0.08-0.357-0.128-0.534c-0.608-2.243-0.607-2.264-2.966-2.352
			c-0.91-0.034-1.411-0.346-0.801-1.217c0.787-1.124,0.494-1.918-0.497-2.633c-1.044-0.754-1.027-1.511,0.012-2.233
			c1.083-0.753,1.176-1.581,0.312-2.58c-0.835-0.965-0.787-1.822,0.512-2.266c1.472-0.503,1.488-1.524,1.219-2.801
			c-0.359-1.706-0.234-1.801,1.373-1.513c1.852,0.331,1.852,0.331,2.479-1.557c0.526-1.584,0.526-1.584,2.047-0.836
			c0.285,0.14,0.593,0.248,0.848,0.431c0.723,0.52,1.218,0.413,1.789-0.328c1.571-2.037,1.644-2.038,3.211-0.007
			c0.569,0.737,1.07,0.86,1.79,0.346c0.11-0.078,0.241-0.125,0.363-0.187c2.113-1.066,2.167-1.073,2.479,1.304
			c0.125,0.954,0.507,1.165,1.326,0.931c0.043-0.012,0.091-0.005,0.135-0.016c2.295-0.579,2.372-0.113,1.849,1.855
			c-0.273,1.026,0.032,1.436,1.119,1.589c1.567,0.222,1.587,0.405,0.746,1.835c-0.139,0.236-0.31,0.456-0.422,0.705
			c-0.251,0.558-1.006,1.053-0.142,1.748c0.726,0.584,1.41,1.248,2.357,0.502c0.391-0.308,0.654-0.156,0.969,0.038
			C37.573,24.813,37.573,25.455,37.573,26.097z M12.768,29.903c2.435,0,4.57,0.093,6.694-0.028c1.914-0.109,3.819-0.521,5.299-1.88
			c1.265-1.161,2.341-2.446,1.477-4.415c-0.297-0.676-0.124-1.443,0.172-2.144c0.335-0.793,0.973-1.155,1.594-0.567
			c1.305,1.238,3.037,0.624,4.487,1.243c0.772,0.329,0.824-0.756,1.179-1.207c0.286-0.363,0.013-0.592-0.379-0.6
			c-1.684-0.036-1.922-0.94-1.467-2.359c0.317-0.992-0.29-1.081-1.023-0.895c-2.158,0.547-1.902,0.106-2.152-1.634
			c-0.154-1.077-0.473-1.037-1.273-0.628c-1.916,0.98-1.968,0.978-3.228-0.673c-0.574-0.752-0.897-0.781-1.48-0.007
			c-1.53,2.028-1.129,1.798-3.089,0.717c-1.12-0.618-1.6-0.398-1.775,0.796c-0.212,1.45-0.944,1.934-2.353,1.439
			c-0.921-0.323-1.31,0.145-0.992,1.026c0.474,1.311,0.002,2.092-1.193,2.566c-1.012,0.402-1.134,1.031-0.427,1.819
			c1.003,1.119,0.713,2.014-0.401,2.816c-0.688,0.495-0.834,1.009-0.05,1.582C13.411,27.621,13.981,28.506,12.768,29.903z
			 M17.315,34.864c0.364,0.009,0.528-0.205,0.649-0.461c0.194-0.413,0.406-0.821,0.558-1.249c0.298-0.84,0.723-1.092,1.641-0.752
			c1.296,0.479,2.723,0.525,4.021,0.108c1.644-0.528,2.772-0.138,3.579,1.36c0.064,0.119,0.159,0.224,0.256,0.32
			c0.278,0.274,0.454,0.789,0.947,0.64c0.584-0.176,0.476-0.748,0.415-1.167c-0.205-1.411,0.285-2.07,1.729-2.48
			c2.365-0.67,4.127-2.24,5.026-4.643c0.218-0.584,0.286-1.044-0.612-1.024c-0.821,0.018-1.461-0.471-1.976-1.074
			c-1.055-1.235-2.359-1.798-3.975-1.657c-0.39,0.034-0.815,0.102-1.151-0.249c-0.259-0.27-0.474-0.873-0.907-0.574
			c-0.506,0.349-0.415,1.056-0.158,1.512c0.48,0.852,0.396,1.653,0.1,2.5c-0.57,1.631-1.647,2.827-3.125,3.658
			c-1.743,0.98-3.659,1.253-5.616,1.425c-0.884,0.078-2.215-0.537-2.545,0.372c-0.28,0.77,0.406,1.899,0.672,2.867
			c0.035,0.128,0.092,0.263,0.176,0.362C17.102,34.754,17.232,34.809,17.315,34.864z"/>
	</g>
	<circle class="st2" cx="30.825" cy="25.264" r="0.5"/>
	<g>
	</g>
	<g>
	</g>
	<g>
	</g>
	<g>
	</g>
	<g>
	</g>
	<g>
	</g>
	<g>
	</g>
	<g>
	</g>
	<g>
	</g>
	<g>
	</g>
	<g>
	</g>
	<g>
	</g>
	<g>
	</g>
	<g>
	</g>
	<g>
	</g>
</g>
</svg>
