<?xml version="1.0" encoding="utf-8"?>
<!-- Generator: Adobe Illustrator 25.2.0, SVG Export Plug-In . SVG Version: 6.00 Build 0)  -->
<svg version="1.1" xmlns="http://www.w3.org/2000/svg" xmlns:xlink="http://www.w3.org/1999/xlink" x="0px" y="0px"
	 viewBox="0 0 48 48" style="enable-background:new 0 0 48 48;" xml:space="preserve">
<style type="text/css">
	.st0{display:none;}
	.st1{display:inline;fill:#333333;}
	.st2{fill:#FFFFFF;}
	.st3{fill:none;stroke:#FFFFFF;stroke-width:0.5;stroke-linecap:round;stroke-miterlimit:10;}
</style>
<g id="Слой_3" class="st0">
	<rect class="st1" width="48" height="48"/>
</g>
<g id="Слой_1">
	<g>
		<path class="st2" d="M24,6c9.925,0,18,8.075,18,18s-8.075,18-18,18S6,33.925,6,24S14.075,6,24,6 M24,4C12.954,4,4,12.954,4,24
			s8.954,20,20,20s20-8.954,20-20S35.046,4,24,4L24,4z"/>
	</g>
	<path class="st2" d="M49.828,11.177"/>
	<path class="st2" d="M51.275,10.03"/>
	<g>
		<path class="st2" d="M22.667,36.245c-0.108-0.267-0.225-0.531-0.321-0.803c-0.488-1.384-0.486-1.385-2.072-1.488
			c0.575-0.65,1.463-1.006,0.98-2.179c-0.389-0.944-0.633-1.691-2.005-1.514c1.201-0.637,1.633-1.551,0.872-2.495
			c-0.514-0.638-1.381-0.559-1.92,0.359c-0.345-1.474-1.62-2.262-2.94-1.921c0.143-1.521-0.816-2.325-2.364-1.981
			c0.831-1.711,0.519-3.089-0.897-4.202c1.422-0.941,2.457-2.197,3.048-3.938c0.782,1.462,2.103,1.9,3.662,2.135
			c-0.604,0.781-0.281,1.674-0.181,2.532c0.097,0.832,0.22,1.707,1.126,2.415c-0.147-0.897,0.288-1.699-0.412-2.324
			c-0.165-0.147-0.203-0.248-0.011-0.351c0.75-0.399,0.372-1.106,0.447-1.673c0.148-1.117,0.493-2.335-1.33-2.852
			c2.059-0.434,3.191-1.844,3.419-3.893c1.046,0.803,3.593,0.623,4.453-0.316c0.515,1.124,2.191,1.931,3.675,1.623
			c-0.653,0.721-0.399,1.306-0.152,2.012c0.286,0.815,0.832,1.142,1.618,1.434c-0.688,0.315-1.268,0.465-1.359,1.371
			c-0.089,0.883,0.166,1.324,1.03,1.649c-0.79,0.231-1.363,0.378-1.443,1.351c-0.085,1.026,0.672,1.084,1.183,1.466
			c-0.43,0.455-1.314,0.084-1.433,1.1c-0.112,0.967,0.493,1.181,1.046,1.556c-1.317,0.249-1.412,0.453-1.099,2.506
			c1.014-0.617,1.19-1.508,1.073-2.531c0.36-0.387,0.678-0.829,1.091-1.148c0.499-0.386,0.233-1,0.585-1.525
			c0.762,1.6,2.046,1.901,3.963,1.36c-1.118,0.86-1.002,1.796-1.243,2.639c-0.334,1.17,0.559,1.581,1.015,2.318
			c-2.296-0.211-2.902,0.422-2.691,2.967c-1.255-1.714-2.413-0.365-3.573-0.083c-0.606,0.148-0.611,1.083-0.066,1.458
			c0.26,0.179,0.646,0.149,0.896,0.606c-1.842,0.079-0.995,1.46-1.206,2.363C26.978,36.245,24.823,36.245,22.667,36.245z
			 M25.698,35.25c0.538,0,1.079-0.035,1.613,0.009c0.648,0.054,0.863-0.169,0.828-0.837c-0.285-5.558,0.169-11.073,0.944-16.576
			c0.336-2.388-1.118-4.162-3.441-4.455c-2.36-0.297-4.463,1.328-4.775,3.642c-0.732,5.443,0.109,10.713,1.698,15.906
			C23.275,35.251,23.277,35.25,25.698,35.25z M19.903,26.468c0.045-0.662,0.231-1.462-0.319-1.866
			c-1.611-1.182-2.011-2.832-2.139-4.661c-0.059-0.837-0.588-1.363-1.383-1.55c-0.761-0.179-1.382,0.121-1.816,0.766
			c-0.403,0.599-0.319,1.27-0.197,1.922C14.546,23.751,16.864,25.892,19.903,26.468z M33.848,26.441
			c0.032-0.905-0.297-1.442-1.046-1.596c-0.661-0.136-1.253,0.24-1.32,0.834c-0.171,1.512-0.802,2.621-2.146,3.377
			c-0.493,0.277-0.22,0.903-0.251,1.375c-0.017,0.259,0.165,0.313,0.406,0.318C31.281,30.782,33.833,28.181,33.848,26.441z"/>
	</g>
	<path class="st3" d="M22.185,19.943c0.044,0.128,0.441,1.232,1.634,1.634c1.137,0.383,2.08-0.18,2.207-0.258"/>
	<path class="st3" d="M24,17.153"/>
	<path class="st3" d="M26.025,17.783"/>
	<circle class="st2" cx="26.104" cy="19.004" r="0.366"/>
	<circle class="st2" cx="23.449" cy="17.892" r="0.366"/>
</g>
<g id="Слой_2">
	<g>
	</g>
	<g>
	</g>
	<g>
	</g>
	<g>
	</g>
	<g>
	</g>
	<g>
	</g>
	<g>
	</g>
	<g>
	</g>
	<g>
	</g>
	<g>
	</g>
	<g>
	</g>
	<g>
	</g>
	<g>
	</g>
	<g>
	</g>
	<g>
	</g>
</g>
</svg>
