<?xml version="1.0" encoding="utf-8"?>
<!-- Generator: Adobe Illustrator 25.2.0, SVG Export Plug-In . SVG Version: 6.00 Build 0)  -->
<svg version="1.1" xmlns="http://www.w3.org/2000/svg" xmlns:xlink="http://www.w3.org/1999/xlink" x="0px" y="0px"
	 viewBox="0 0 48 48" style="enable-background:new 0 0 48 48;" xml:space="preserve">
<style type="text/css">
	.st0{display:none;}
	.st1{display:inline;fill:#333333;}
	.st2{fill:#FFFFFF;}
</style>
<g id="Слой_3" class="st0">
	<rect class="st1" width="48" height="48"/>
</g>
<g id="Слой_1">
	<g>
		<path class="st2" d="M24,6c9.925,0,18,8.075,18,18s-8.075,18-18,18S6,33.925,6,24S14.075,6,24,6 M24,4C12.954,4,4,12.954,4,24
			s8.954,20,20,20s20-8.954,20-20S35.046,4,24,4L24,4z"/>
	</g>
</g>
<g id="Слой_2">
	<g>
		<path class="st2" d="M13.031,27.693c-1.446,0.056-1.657-0.833-1.572-1.965c0.039-0.518,0.031-1.043,0.002-1.563
			c-0.06-1.056,0.192-1.839,1.533-1.751c0.35-3.3,1.647-6.056,4.261-8.09c2.063-1.605,4.413-2.374,7.026-2.321
			c5.539,0.113,9.36,3.782,10.748,10.384c1.408-0.063,1.627,0.883,1.456,1.987c-0.192,1.24,0.868,3.063-1.548,3.375
			c0,1.269-0.043,2.526,0.016,3.779c0.036,0.781-0.189,1.279-0.9,1.673c-6.75,3.739-13.484,3.756-20.18-0.088
			c-0.413-0.237-0.761-0.909-0.804-1.409C12.956,30.414,13.031,29.107,13.031,27.693z M33.894,26.818c-0.003,0-0.006,0-0.008,0
			c0-1.389,0.033-2.778-0.006-4.166c-0.148-5.329-4.531-9.594-9.852-9.611c-5.386-0.018-9.826,4.267-9.937,9.654
			c-0.058,2.82-0.047,5.642,0.017,8.461c0.01,0.449,0.349,1.094,0.726,1.302c6.105,3.36,12.244,3.326,18.347-0.01
			c0.352-0.192,0.657-0.783,0.681-1.206C33.945,29.771,33.894,28.293,33.894,26.818z"/>
		<path class="st2" d="M15.117,24.462c0-4.722,1.82-6.839,6.563-7.593c2.309-0.367,4.593-0.254,6.809,0.543
			c2.97,1.068,4.354,3.057,4.361,6.212c0.001,0.348,0,0.695,0,1.043c0,4.059-1.496,6.111-5.485,6.755
			c-2.188,0.354-4.524,0.354-6.714,0.011C16.579,30.794,15.117,28.749,15.117,24.462z M30.471,28.994
			c-0.055-0.168-0.11-0.337-0.165-0.505c-1.154,0.222-2.301,0.494-3.464,0.635c-0.35,0.042-0.86-0.188-1.081-0.466
			c-0.173-0.217-0.151-0.822,0.035-1.032c0.235-0.265,0.736-0.441,1.104-0.413c0.962,0.072,1.913,0.387,2.871,0.4
			c1.464,0.019,2.024-0.626,2.036-2.067c0.005-0.651,0.002-1.303,0.001-1.955c-0.007-2.634-1.077-4.225-3.56-5.151
			c-2.477-0.924-5.026-0.942-7.562-0.319c-3.217,0.79-4.524,2.541-4.525,5.873c0,0.478-0.001,0.956,0,1.433
			c0.004,2.408,0.838,3.72,3.113,4.545c3.129,1.135,6.3,1.109,9.436-0.006C29.333,29.743,29.885,29.323,30.471,28.994z"/>
	</g>
	<g>
	</g>
	<g>
	</g>
	<g>
	</g>
	<g>
	</g>
	<g>
	</g>
	<g>
	</g>
	<g>
	</g>
	<g>
	</g>
	<g>
	</g>
	<g>
	</g>
	<g>
	</g>
	<g>
	</g>
	<g>
	</g>
	<g>
	</g>
	<g>
	</g>
</g>
</svg>
