<?xml version="1.0" encoding="utf-8"?>
<!-- Generator: Adobe Illustrator 25.2.0, SVG Export Plug-In . SVG Version: 6.00 Build 0)  -->
<svg version="1.1" xmlns="http://www.w3.org/2000/svg" xmlns:xlink="http://www.w3.org/1999/xlink" x="0px" y="0px"
	 viewBox="0 0 48 48" style="enable-background:new 0 0 48 48;" xml:space="preserve">
<style type="text/css">
	.st0{display:none;}
	.st1{display:inline;fill:#333333;}
	.st2{display:inline;fill:#FFFFFF;}
	.st3{fill:#FFFFFF;}
	.st4{fill:none;stroke:#FFFFFF;stroke-width:0.5;stroke-linecap:round;stroke-miterlimit:10;}
</style>
<g id="Слой_3" class="st0">
	<rect y="0" class="st1" width="48" height="48"/>
	<path class="st2" d="M28.088,18.253"/>
	<path class="st2" d="M29.536,17.107"/>
</g>
<g id="Слой_1">
	<g>
		<path class="st3" d="M24,6c9.925,0,18,8.075,18,18s-8.075,18-18,18S6,33.925,6,24S14.075,6,24,6 M24,4C12.954,4,4,12.954,4,24
			s8.954,20,20,20s20-8.954,20-20S35.046,4,24,4L24,4z"/>
	</g>
	<path class="st3" d="M49.828,11.177"/>
	<path class="st3" d="M51.275,10.03"/>
	<path class="st4" d="M24,17.153"/>
	<path class="st4" d="M26.025,17.783"/>
	<g>
		<path class="st3" d="M32.727,23.894c0.154,0.665,0.302,1.031,0.312,1.402c0.031,1.209-0.816,1.821-1.914,1.422
			c-1.854-0.672-2.252-0.347-2.176,1.565c0.036,0.9,0.542,1.047,1.208,1.123c1.701,0.195,3.149-0.462,4.507-1.394
			c0.392-0.269,0.751-0.585,1.329-1.041c0.104,3.452-0.797,6.244-3.268,8.435c-0.287,0.254-0.824,0.556-0.797,0.782
			c0.224,1.869-1.066,1.487-2.08,1.491c-2.779,0.012-5.563-0.102-8.335,0.033c-2.915,0.143-5.302-1.042-7.53-2.684
			c-1.741-1.284-2.399-3.434-1.72-5.069c0.673-1.62,2.455-2.499,4.654-2.296c1.352,0.125,1.352,0.125,2.351-1.041
			c-2.182,0.549-2.837-0.124-2.405-2.472c-1.802-0.056-1.845-0.449-0.332-3.584c-0.726,0.123-1.389,0.236-2.1,0.356
			c-0.284-1.429,0.2-2.646,1.056-3.693c0.474-0.579,0.518-1.039,0.232-1.703c-0.55-1.275-0.715-2.643-0.793-4.029
			c-0.043-0.764,0.203-1.048,0.977-1.044c1.982,0.011,3.775,0.576,5.235,1.916c0.699,0.643,1.36,0.577,2.21,0.625
			c2.807,0.159,5.325-0.311,7.69-1.984c0.989-0.7,2.638-1.097,3.575-0.271c0.761,0.671,0.063,2.133-0.081,3.24
			c-0.019,0.145-0.036,0.304-0.105,0.428c-0.738,1.323-0.609,2.477,0.385,3.682c0.618,0.749,0.752,1.788,0.536,2.84
			c-0.706-0.125-1.366-0.241-2.147-0.379c0.353,0.754,0.748,1.362,0.924,2.03C34.37,23.507,34.665,24.652,32.727,23.894z
			 M29.808,23.702c0.732-0.506,1.432-0.82,2.218-0.877c0.9-0.065,0.783-0.456,0.381-1.023c-0.518-0.731-1.385-0.957-2.14-1.44
			c1.132-0.905,2.374-1.038,3.65-1.063c-0.999-3.145-5.33-5.471-9.662-5.26c-3.902,0.19-7.788,2.635-8.344,5.301
			c1.302-0.063,2.522,0.169,3.61,1.026c-0.737,0.49-1.644,0.659-2.172,1.423c-0.387,0.56-0.535,0.958,0.376,1.035
			c0.815,0.069,1.552,0.359,2.318,0.926c-0.689,0.37-1.242,0.646-1.771,0.962c-0.202,0.12-0.404,0.325-0.316,0.604
			c0.101,0.32,0.394,0.26,0.603,0.178c2.139-0.838,4.35,0.933,6.501-0.186c0.248-0.129,0.736,0.163,1.09,0.312
			c0.265,0.112,0.508,0.364,0.808,0.236c1.564-0.666,3.169-0.802,4.881-0.217C31.671,24.296,30.511,24.392,29.808,23.702z
			 M27.689,26.851c-0.28,0.242-0.401,0.295-0.411,0.363c-0.187,1.385-1.002,2.134-2.346,2.158c-1.255,0.022-2.131-0.587-2.383-1.922
			c-0.136-0.719-0.684-0.907-1.197-0.585c-2.103,1.316-4.032,2.83-4.56,5.482c-0.506,2.545,0.432,3.824,2.966,4.096
			c0.58,0.062,1.176,0.103,1.751,0.038c0.446-0.051,1.234,0.377,1.264-0.441c0.024-0.649-0.684-0.714-1.231-0.751
			c-0.145-0.01-0.293-0.004-0.439,0.006c-0.365,0.025-0.712-0.036-0.831-0.429c-0.124-0.412,0.208-0.607,0.483-0.816
			c0.194-0.147,0.404-0.292,0.55-0.482c0.484-0.63,1.077-1.341,0.262-2.054c-0.73-0.638-1.482-0.434-1.897,0.47
			c-0.243,0.529-0.666,0.437-0.973,0.312c-0.447-0.183-0.165-0.587-0.055-0.884c0.397-1.07,1.609-1.67,2.763-1.339
			c1.195,0.343,1.985,1.274,1.638,2.409c-0.379,1.24,0.091,1.817,0.663,2.802c0.676,1.164,1.378,1.294,2.418,1.21
			c0.267-0.022,0.637,0.14,0.77-0.207c0.154-0.401-0.153-0.724-0.46-0.803c-1.546-0.398-1.395-1.697-1.521-2.837
			c-0.038-0.343-0.185-0.82,0.454-0.878c0.643-0.059,0.723,0.312,0.704,0.813c-0.036,0.966,0.266,1.697,1.248,2.075
			c0.278,0.107,0.491,0.471,0.664,0.761c0.762,1.278,0.92,1.34,2.417,0.799c-0.031-0.09-0.042-0.196-0.097-0.267
			c-0.088-0.115-0.195-0.284-0.311-0.299c-1.852-0.242-1.76-1.729-1.989-3.059C27.686,30.757,27.919,28.892,27.689,26.851z
			 M34.585,29.61c-0.7,0.267-1.214,0.504-1.752,0.656c-0.557,0.157-1.132,0.292-1.706,0.329c-2.147,0.14-2.148,0.124-1.858,2.362
			c0.031,0.243,0.034,0.497,0.113,0.724c0.26,0.752,1.779,1.424,2.341,0.996C33.331,33.449,34.262,31.814,34.585,29.61z
			 M15.546,34.428c-0.111-1.977,0.354-3.78,1.44-5.427c-1.886-0.31-3.357,0.347-3.733,1.587
			C12.826,31.996,13.789,33.676,15.546,34.428z M20.659,13.52c-1.11-1.136-2.305-1.686-3.698-1.824
			c-0.319-0.032-0.784-0.112-0.76,0.407c0.046,1.031,0.205,2.053,0.603,3.016c0.155,0.376,0.411,0.324,0.692,0.111
			C18.418,14.531,19.485,14.082,20.659,13.52z M29.252,13.509c0.988,0.556,1.948,1.031,2.835,1.618
			c0.599,0.396,0.858,0.25,1.003-0.374c0.228-0.979,0.956-2.252,0.261-2.893c-0.712-0.655-1.922,0.086-2.829,0.553
			C30.056,12.654,29.567,12.903,29.252,13.509z M24.971,26.456c-0.589,0.03-1.153,0.201-1.183,0.841
			c-0.03,0.656,0.525,0.876,1.099,0.893c0.529,0.016,1.026-0.222,1.094-0.756C26.068,26.762,25.513,26.561,24.971,26.456z"/>
		<path class="st3" d="M21.431,19.977c1.259,0.231,2.278,0.789,2.702,2.118c0.084,0.263,0.29,0.607-0.09,0.743
			c-0.283,0.101-0.744,0.226-0.898-0.18c-0.375-0.988-1.082-1.432-2.08-1.573c-0.378-0.054-0.271-0.456-0.261-0.73
			C20.82,19.933,21.118,19.935,21.431,19.977z"/>
		<path class="st3" d="M26.208,22.876c-0.629,0.039-0.733-0.166-0.649-0.615c0.209-1.121,1.781-2.384,2.897-2.299
			c0.255,0.019,0.505,0.026,0.503,0.358c-0.002,0.233-0.038,0.659-0.107,0.67c-1.142,0.174-1.905,0.808-2.398,1.838
			C26.419,22.902,26.185,22.88,26.208,22.876z"/>
	</g>
	<g>
	</g>
	<g>
	</g>
	<g>
	</g>
	<g>
	</g>
	<g>
	</g>
	<g>
	</g>
	<g>
	</g>
	<g>
	</g>
	<g>
	</g>
	<g>
	</g>
	<g>
	</g>
	<g>
	</g>
	<g>
	</g>
	<g>
	</g>
	<g>
	</g>
</g>
</svg>
