<?xml version="1.0" encoding="utf-8"?>
<!-- Generator: Adobe Illustrator 25.2.0, SVG Export Plug-In . SVG Version: 6.00 Build 0)  -->
<svg version="1.1" xmlns="http://www.w3.org/2000/svg" xmlns:xlink="http://www.w3.org/1999/xlink" x="0px" y="0px"
	 viewBox="0 0 48 48" style="enable-background:new 0 0 48 48;" xml:space="preserve">
<style type="text/css">
	.st0{display:none;}
	.st1{display:inline;fill:#333333;}
	.st2{fill:#FFFFFF;}
</style>
<g id="Слой_3" class="st0">
	<rect class="st1" width="48" height="48"/>
</g>
<g id="Слой_1">
	<g>
		<path class="st2" d="M24,6c9.925,0,18,8.075,18,18s-8.075,18-18,18S6,33.925,6,24S14.075,6,24,6 M24,4C12.954,4,4,12.954,4,24
			s8.954,20,20,20s20-8.954,20-20S35.046,4,24,4L24,4z"/>
	</g>
	<path class="st2" d="M49.828,11.177"/>
	<path class="st2" d="M51.275,10.03"/>
	<g>
		<path class="st2" d="M11.48,25.203c0.435-0.032,0.884-0.151,1.302-0.083c2.091,0.339,4.174,0.726,6.53,1.145
			c-0.798-1.604-1.525-3.011-2.195-4.445c-0.175-0.375-0.175-0.833-0.255-1.253c0.426,0.055,0.889,0.021,1.271,0.181
			c2.565,1.074,5.113,2.189,7.973,3.423c-0.81-1.922-1.446-3.606-2.228-5.22c-0.419-0.864-0.276-1.408,0.365-2.066
			c1.395-1.433,2.727-2.928,4.045-4.434c0.499-0.57,0.882-0.604,1.437-0.082c1.759,1.658,3.559,3.273,5.32,4.93
			c0.209,0.197,0.274,0.547,0.405,0.826c-0.296,0.104-0.591,0.292-0.89,0.298c-1.624,0.03-3.248,0.014-5.168,0.014
			c2.445,3.868,4.786,7.571,7.128,11.275c0,0.167,0,0.334,0,0.501c-1.328,1.601-2.684,3.18-3.969,4.815
			c-0.536,0.681-1.101,0.99-1.993,0.969c-2.497-0.06-4.998-0.068-7.495,0.001c-1.08,0.03-1.85-0.277-2.608-1.076
			c-2.951-3.111-5.977-6.152-8.975-9.218C11.48,25.537,11.48,25.37,11.48,25.203z M13.845,26.302
			c-0.038,0.075-0.075,0.15-0.113,0.225c2.629,2.715,5.254,5.433,7.894,8.137c0.156,0.16,0.428,0.291,0.647,0.293
			c2.769,0.02,5.539,0.013,8.481,0.013c-0.855-1.999-1.62-3.832-2.438-5.641c-0.111-0.246-0.471-0.483-0.75-0.535
			C22.995,27.945,18.419,27.127,13.845,26.302z M31.643,34.509c1.138-1.39,2.135-2.667,3.202-3.882
			c0.475-0.541,0.451-0.936,0.077-1.521c-1.907-2.983-3.77-5.993-5.646-8.996c-1.1-1.76-2.334-2.167-4.421-1.414
			C27.087,23.898,29.319,29.096,31.643,34.509z M27.557,27.757c-0.37-1.39-0.812-2.398-2.224-2.869
			c-1.729-0.577-3.368-1.425-5.049-2.148c-0.57-0.245-1.151-0.465-1.987-0.8c0.78,1.562,1.396,2.832,2.052,4.081
			c0.121,0.231,0.382,0.496,0.618,0.542C23.121,26.98,25.282,27.352,27.557,27.757z M33.634,17.388
			c-1.62-1.499-3.067-2.838-4.585-4.242c-1.289,1.418-2.498,2.749-3.855,4.242C28.079,17.388,30.689,17.388,33.634,17.388z"/>
	</g>
</g>
<g id="Слой_2">
	<g>
	</g>
	<g>
	</g>
	<g>
	</g>
	<g>
	</g>
	<g>
	</g>
	<g>
	</g>
	<g>
	</g>
	<g>
	</g>
	<g>
	</g>
	<g>
	</g>
	<g>
	</g>
	<g>
	</g>
	<g>
	</g>
	<g>
	</g>
	<g>
	</g>
</g>
</svg>
