<?xml version="1.0" encoding="utf-8"?>
<!-- Generator: Adobe Illustrator 25.2.0, SVG Export Plug-In . SVG Version: 6.00 Build 0)  -->
<svg version="1.1" xmlns="http://www.w3.org/2000/svg" xmlns:xlink="http://www.w3.org/1999/xlink" x="0px" y="0px"
	 viewBox="0 0 48 48" style="enable-background:new 0 0 48 48;" xml:space="preserve">
<style type="text/css">
	.st0{display:none;}
	.st1{display:inline;fill:#333333;}
	.st2{fill:#FFFFFF;}
</style>
<g id="Слой_3" class="st0">
	<rect class="st1" width="48" height="48"/>
</g>
<g id="Слой_1">
	<g>
		<path class="st2" d="M24,6c9.925,0,18,8.075,18,18s-8.075,18-18,18S6,33.925,6,24S14.075,6,24,6 M24,4C12.954,4,4,12.954,4,24
			s8.954,20,20,20s20-8.954,20-20S35.046,4,24,4L24,4z"/>
	</g>
	<g>
		<path class="st2" d="M29.677,36.233c1.438,1.873,1.189,2.554-0.952,3.041c-1.532,0.349-2.91,0.532-3.829-1.296
			c-0.429-0.853-1.304-0.823-1.947,0.139c-1.024,1.533-3.679,1.847-5.104,0.633c-1.145-0.976-0.13-1.658,0.423-2.466
			c-2.114-1.507-2.285-3.803-2.343-6.319c-0.756,0.616-1.351,1.19-2.033,1.621c-0.381,0.241-1.099,0.488-1.326,0.305
			c-0.349-0.282-0.649-0.992-0.545-1.414c0.423-1.724,0.826-3.496,1.583-5.082c0.787-1.649,2.104-3.037,2.944-4.667
			c0.667-1.294,1.031-2.765,1.398-4.191c0.177-0.686,0.005-1.455,0.071-2.179c0.314-3.435,2.808-5.871,5.966-5.859
			c3.096,0.011,5.567,2.36,5.962,5.699c0.072,0.61,0.069,1.233,0.053,1.849c-0.05,1.92,0.484,3.6,1.672,5.147
			c1.877,2.443,3.583,5.008,4.165,8.138c0.092,0.493,0.185,1.003,0.158,1.499c-0.061,1.138-0.641,1.559-1.65,0.924
			c-0.744-0.468-1.401-1.075-2.244-1.736C31.887,32.347,31.955,34.734,29.677,36.233z M30.191,33.281
			c0.072,0.025,0.145,0.05,0.217,0.075c0.088-1.095,0.212-2.188,0.255-3.285c0.044-1.131,0.01-2.264,0.01-3.637
			c1.386,1.329,2.498,2.395,3.907,3.746c-0.233-0.975-0.26-1.662-0.551-2.205c-1.052-1.964-2.034-3.999-3.343-5.782
			c-1.399-1.906-2.103-3.898-2.034-6.239c0.024-0.832-0.028-1.695-0.225-2.499c-0.723-2.955-3.662-4.35-6.392-3.098
			c-2.133,0.977-2.815,2.821-2.695,4.969c0.155,2.785-0.6,5.14-2.4,7.286c-1.027,1.224-1.785,2.705-2.514,4.148
			c-0.476,0.942-0.683,2.022-1.01,3.04c0.158,0.095,0.316,0.191,0.474,0.286c1.096-1.12,2.192-2.241,3.621-3.703
			c0,2.573,0,4.768,0,6.963c0.472-0.978,0.503-1.959,0.631-2.927c0.132-0.998,0.274-2.008,0.56-2.968
			c0.807-2.71,2.61-4.09,5.226-4.112c2.706-0.022,4.616,1.345,5.341,4.158C29.753,29.376,29.895,31.348,30.191,33.281z
			 M28.892,32.94c-0.402-1.964-0.586-4.008-1.259-5.872c-0.93-2.575-4.601-3.38-6.336-1.359c-0.909,1.059-1.445,2.659-1.644,4.087
			c-0.868,6.226,0.048,7.07,6.327,6.265C28.631,35.722,28.708,35.633,28.892,32.94z"/>
		<ellipse class="st2" cx="22.162" cy="14.323" rx="0.669" ry="1.158"/>
		<ellipse class="st2" cx="25.663" cy="14.323" rx="0.669" ry="1.158"/>
	</g>
	<path class="st2" d="M49.828,11.177"/>
	<path class="st2" d="M51.275,10.03"/>
	<path class="st2" d="M23.997,16.915c-1.362,0-2.732,0.581-2.467,1.171c0.338,0.754,2.467,2.197,2.467,2.197
		s2.129-1.444,2.467-2.197C26.729,17.496,25.36,16.915,23.997,16.915z"/>
</g>
<g id="Слой_2">
	<g>
	</g>
	<g>
	</g>
	<g>
	</g>
	<g>
	</g>
	<g>
	</g>
	<g>
	</g>
	<g>
	</g>
	<g>
	</g>
	<g>
	</g>
	<g>
	</g>
	<g>
	</g>
	<g>
	</g>
	<g>
	</g>
	<g>
	</g>
	<g>
	</g>
</g>
</svg>
