<?xml version="1.0" encoding="utf-8"?>
<!-- Generator: Adobe Illustrator 25.2.0, SVG Export Plug-In . SVG Version: 6.00 Build 0)  -->
<svg version="1.1" xmlns="http://www.w3.org/2000/svg" xmlns:xlink="http://www.w3.org/1999/xlink" x="0px" y="0px"
	 viewBox="0 0 48 48" style="enable-background:new 0 0 48 48;" xml:space="preserve">
<style type="text/css">
	.st0{display:none;}
	.st1{display:inline;fill:#333333;}
	.st2{fill:#FFFFFF;}
	.st3{fill:none;stroke:#FFFFFF;stroke-width:0.5;stroke-linecap:round;stroke-miterlimit:10;}
</style>
<g id="Слой_3" class="st0">
	<rect class="st1" width="48" height="48"/>
</g>
<g id="Слой_1">
	<g>
		<path class="st2" d="M24,6c9.925,0,18,8.075,18,18s-8.075,18-18,18S6,33.925,6,24S14.075,6,24,6 M24,4C12.954,4,4,12.954,4,24
			s8.954,20,20,20s20-8.954,20-20S35.046,4,24,4L24,4z"/>
	</g>
	<path class="st3" d="M24,17.153"/>
	<path class="st3" d="M26.025,17.783"/>
	<g>
		<path class="st2" d="M22.079,33.824c-2.431,0.813-4.691,0.686-6.841-0.52c-1.673-0.938-2.731-2.36-3.162-4.237
			c-0.224-0.975,0.017-1.498,1.165-1.459c1.863,0.063,3.732-0.02,5.595,0.033c0.803,0.023,1.028-0.239,1.017-1.027
			c-0.042-2.891-0.027-5.783-0.014-8.674c0.018-3.976,2.594-6.529,6.59-6.549c1.213-0.006,2.426,0.022,3.638-0.005
			c2.853-0.063,4.544,1.546,5.778,3.895c0.389,0.74-0.044,1.237-0.317,1.807c-0.08,0.167-0.187,0.322-0.292,0.476
			c-1.029,1.517-1.488,3.995-1.08,5.848c0.859,3.91-0.86,7.78-4.339,9.769c-1.397,0.799-1.394,0.837-0.232,1.87
			c0.357,0.317,1.043,0.535,0.779,1.164c-0.246,0.587-0.9,0.354-1.387,0.358c-2.192,0.018-4.383,0.017-6.575,0
			c-0.444-0.003-0.997,0.199-1.294-0.282c-0.365-0.591,0.262-0.906,0.499-1.317C21.791,34.657,22.083,34.397,22.079,33.824z
			 M20.956,22.34c0,1.679-0.047,3.36,0.017,5.036c0.039,1.017-0.277,1.433-1.343,1.386c-1.629-0.071-3.264-0.021-4.896-0.018
			c-1.561,0.003-1.711,0.254-0.895,1.629c1.218,2.054,3.143,2.827,5.425,2.838c2.231,0.011,3.954-0.939,5.068-2.902
			c0.73-1.286,1.045-2.699,1.069-4.155c0.014-0.904,0.245-1.286,1.245-1.387c2.706-0.272,4.298-2.035,4.371-4.737
			c0.059-2.19-0.01-4.384,0.031-6.575c0.014-0.739-0.24-0.981-0.965-0.958c-1.351,0.043-2.705-0.012-4.057,0.018
			c-2.893,0.064-5,2.17-5.06,5.067C20.931,19.168,20.958,20.754,20.956,22.34z M31.986,21.279c-0.681,2.558-2.174,4.088-4.729,4.448
			c-0.477,0.067-0.726,0.267-0.767,0.793c-0.188,2.403-0.906,4.601-2.753,6.35c2.828,0.909,6.148-0.311,7.999-2.829
			C33.645,27.444,33.792,23.937,31.986,21.279z M34.424,15.154c-0.533-0.947-1.077-1.77-2.203-2.086
			C32.053,15.509,32.053,15.509,34.424,15.154z M32.214,18.658c1.055-0.391,1.683-1.126,2.201-2.081
			C32.063,16.235,32.063,16.235,32.214,18.658z"/>
		<path class="st2" d="M29.902,17.485c0.036,2.126-1.718,3.937-3.847,3.971c-2.128,0.035-3.934-1.716-3.969-3.847
			c-0.035-2.129,1.714-3.935,3.845-3.97C28.059,13.604,29.866,15.354,29.902,17.485z M23.428,16.86
			c1.383,0.201,1.764,0.185,1.966-0.08c0.709-0.93,1.453-0.796,2.024,0.346c0.325,0.651,0.324,1.04-0.581,0.991
			c-0.835-0.046-1.675-0.025-2.512-0.001c-0.301,0.009-0.721-0.179-0.881,0.177c-0.17,0.378,0.151,0.701,0.373,0.989
			c0.763,0.99,2.11,1.32,3.264,0.818c1.208-0.525,1.907-1.814,1.662-3.064c-0.248-1.267-1.369-2.229-2.653-2.277
			C24.766,14.709,23.817,15.458,23.428,16.86z"/>
	</g>
</g>
<g id="Слой_2">
	<g>
	</g>
	<g>
	</g>
	<g>
	</g>
	<g>
	</g>
	<g>
	</g>
	<g>
	</g>
	<g>
	</g>
	<g>
	</g>
	<g>
	</g>
	<g>
	</g>
	<g>
	</g>
	<g>
	</g>
	<g>
	</g>
	<g>
	</g>
	<g>
	</g>
</g>
</svg>
