<?xml version="1.0" encoding="utf-8"?>
<!-- Generator: Adobe Illustrator 25.2.0, SVG Export Plug-In . SVG Version: 6.00 Build 0)  -->
<svg version="1.1" xmlns="http://www.w3.org/2000/svg" xmlns:xlink="http://www.w3.org/1999/xlink" x="0px" y="0px"
	 viewBox="0 0 48 48" style="enable-background:new 0 0 48 48;" xml:space="preserve">
<style type="text/css">
	.st0{display:none;}
	.st1{display:inline;fill:#333333;}
	.st2{fill:#FFFFFF;}
	.st3{fill:none;stroke:#FFFFFF;stroke-width:0.5;stroke-linecap:round;stroke-miterlimit:10;}
</style>
<g id="Слой_3" class="st0">
	<rect class="st1" width="48" height="48"/>
</g>
<g id="Слой_1">
	<g>
		<path class="st2" d="M24,6c9.925,0,18,8.075,18,18s-8.075,18-18,18S6,33.925,6,24S14.075,6,24,6 M24,4C12.954,4,4,12.954,4,24
			s8.954,20,20,20s20-8.954,20-20S35.046,4,24,4L24,4z"/>
	</g>
	<path class="st2" d="M49.828,11.177"/>
	<path class="st2" d="M51.275,10.03"/>
	<path class="st3" d="M24,17.153"/>
	<path class="st3" d="M26.025,17.783"/>
	<path class="st2" d="M24,7.765c-5.867,0-10.588,5.091-10.588,11.294c0,0.64,0.062,1.255,0.153,1.849v0.001
		c0.062,0.642,0.165,1.523,0.27,2.395c-0.043-0.003-0.084-0.01-0.13-0.01c-0.369,0-0.753,0.193-0.986,0.46
		c-0.233,0.267-0.361,0.578-0.459,0.932C12.065,25.395,12,26.314,12,27.529c0,1.032,0.613,2.047,1.271,3.003
		c0.329,0.478,0.679,0.913,1.022,1.253c0.171,0.17,0.34,0.318,0.524,0.44s0.379,0.245,0.713,0.245c0.052,0,0.099-0.015,0.149-0.021
		c0.385,1.18,0.831,2.277,1.355,3.194l0.012,0.021l0.014,0.021c0.796,1.194,2.087,2.282,3.382,3.114
		c1.295,0.833,2.5,1.435,3.558,1.435s2.263-0.603,3.558-1.435c1.295-0.833,2.586-1.92,3.382-3.114l0.014-0.021l0.012-0.021
		c0.525-0.918,0.971-2.015,1.355-3.194c0.05,0.006,0.097,0.021,0.149,0.021c0.333,0,0.529-0.124,0.713-0.245
		c0.184-0.122,0.353-0.27,0.524-0.44c0.342-0.34,0.693-0.775,1.022-1.253C35.387,29.577,36,28.561,36,27.529
		c0-1.215-0.065-2.135-0.261-2.843c-0.098-0.354-0.226-0.665-0.459-0.932c-0.233-0.267-0.616-0.46-0.986-0.46
		c-0.045,0-0.086,0.007-0.13,0.01c0.105-0.872,0.208-1.753,0.27-2.395v-0.001c0.091-0.593,0.153-1.209,0.153-1.849
		C34.588,12.855,29.867,7.765,24,7.765z M24,9.176c5.049,0,9.176,4.391,9.176,9.882c0,0.55-0.053,1.093-0.136,1.635l-0.003,0.021
		l-0.003,0.019c-0.319,3.327-1.308,10.708-3.285,14.188c-0.619,0.919-1.787,1.939-2.955,2.69c-1.175,0.756-2.442,1.212-2.795,1.212
		s-1.619-0.456-2.795-1.212c-1.167-0.75-2.336-1.771-2.955-2.69c-1.978-3.48-2.966-10.861-3.285-14.188l-0.003-0.019l-0.003-0.021
		c-0.084-0.543-0.136-1.085-0.136-1.635C14.824,13.567,18.951,9.176,24,9.176z M21.882,20.471c-2.147,0-3.986,0.077-5.283,0.794
		l0.684,1.235c0.777-0.429,2.511-0.618,4.599-0.618V20.471z M26.118,20.471v1.412c2.088,0,3.822,0.188,4.599,0.618l0.684-1.235
		C30.104,20.548,28.265,20.471,26.118,20.471z M20.491,23.294c-1.298,0-2.559,0.335-3.274,0.556
		c-0.663,0.204-1.097,0.891-0.954,1.588c0.1,0.49,0.316,1.167,0.847,1.756s1.397,1.041,2.544,1.041c0.833,0,1.605-0.275,2.229-0.724
		v1.43c0,0.588,0.272,1.094,0.648,1.47c0.376,0.376,0.881,0.648,1.47,0.648h0.706v-1.412H24c-0.118,0-0.318-0.081-0.472-0.234
		c-0.154-0.154-0.234-0.354-0.234-0.472v-4.235h-0.021c-0.047-0.338-0.212-0.657-0.437-0.859c-0.264-0.237-0.559-0.348-0.841-0.42
		C21.431,23.282,20.864,23.294,20.491,23.294z M27.509,23.294c-0.373,0-0.94-0.012-1.504,0.132c-0.282,0.072-0.577,0.183-0.841,0.42
		c-0.264,0.237-0.458,0.635-0.458,1.035c0,1.888,1.679,3.353,3.641,3.353c1.146,0,2.014-0.452,2.544-1.041s0.746-1.266,0.847-1.756
		c0.143-0.697-0.291-1.384-0.954-1.588h-0.001C30.066,23.629,28.806,23.294,27.509,23.294z M20.491,24.706
		c0.373,0,0.856,0.012,1.154,0.088c0.139,0.036,0.212,0.081,0.233,0.097c-0.006,1.038-0.954,1.933-2.225,1.933
		c-0.808,0-1.205-0.252-1.493-0.572c-0.278-0.309-0.422-0.726-0.495-1.057c0.424-0.13,1.068-0.293,1.75-0.394
		c-0.22,0.126-0.355,0.359-0.356,0.612c0,0.39,0.316,0.706,0.706,0.706c0.39,0,0.706-0.316,0.706-0.706
		c0-0.31-0.202-0.583-0.498-0.674C20.146,24.724,20.321,24.706,20.491,24.706z M27.509,24.706c0.17,0,0.346,0.018,0.52,0.032
		c-0.296,0.091-0.499,0.364-0.499,0.674c0,0.39,0.316,0.706,0.706,0.706c0.39,0,0.706-0.316,0.706-0.706
		c-0.001-0.253-0.137-0.487-0.357-0.612c0.682,0.101,1.327,0.264,1.751,0.394c-0.073,0.331-0.217,0.749-0.495,1.057
		c-0.288,0.321-0.685,0.572-1.493,0.572c-1.271,0-2.219-0.895-2.225-1.933c0.021-0.015,0.094-0.061,0.233-0.097
		C26.652,24.718,27.136,24.706,27.509,24.706z M13.761,24.736c0.101,0.017,0.193,0.063,0.274,0.117
		c0.259,1.825,0.622,3.846,1.126,5.788c-0.228-0.245-0.482-0.554-0.727-0.909c-0.577-0.839-1.023-1.941-1.023-2.203
		c0-1.157,0.082-2.003,0.21-2.466C13.676,24.865,13.73,24.782,13.761,24.736z M34.239,24.736c0.031,0.046,0.085,0.128,0.139,0.327
		c0.128,0.463,0.21,1.309,0.21,2.466c0,0.262-0.446,1.365-1.023,2.203c-0.244,0.355-0.499,0.664-0.727,0.909
		c0.505-1.941,0.867-3.962,1.126-5.788C34.047,24.799,34.139,24.753,34.239,24.736z M23.986,32.471
		c-0.833,0-1.589,0.092-2.104,0.233c0.515,0.72,1.264,1.179,2.104,1.179s1.589-0.459,2.104-1.179
		C25.575,32.562,24.819,32.471,23.986,32.471z"/>
</g>
<g id="Слой_2">
	<g>
	</g>
	<g>
	</g>
	<g>
	</g>
	<g>
	</g>
	<g>
	</g>
	<g>
	</g>
	<g>
	</g>
	<g>
	</g>
	<g>
	</g>
	<g>
	</g>
	<g>
	</g>
	<g>
	</g>
	<g>
	</g>
	<g>
	</g>
	<g>
	</g>
</g>
</svg>
