<?xml version="1.0" encoding="utf-8"?>
<!-- Generator: Adobe Illustrator 25.2.0, SVG Export Plug-In . SVG Version: 6.00 Build 0)  -->
<svg version="1.1" xmlns="http://www.w3.org/2000/svg" xmlns:xlink="http://www.w3.org/1999/xlink" x="0px" y="0px"
	 viewBox="0 0 48 48" style="enable-background:new 0 0 48 48;" xml:space="preserve">
<style type="text/css">
	.st0{display:none;}
	.st1{display:inline;fill:#333333;}
	.st2{fill:#FFFFFF;}
	.st3{fill:none;stroke:#FFFFFF;stroke-width:0.5;stroke-linecap:round;stroke-miterlimit:10;}
</style>
<g id="Слой_3" class="st0">
	<rect class="st1" width="48" height="48"/>
</g>
<g id="Слой_1">
	<g>
		<path class="st2" d="M24,6c9.925,0,18,8.075,18,18s-8.075,18-18,18S6,33.925,6,24S14.075,6,24,6 M24,4C12.954,4,4,12.954,4,24
			s8.954,20,20,20s20-8.954,20-20S35.046,4,24,4L24,4z"/>
	</g>
	<path class="st3" d="M24,17.153"/>
	<path class="st3" d="M26.025,17.783"/>
	<g>
		<path class="st2" d="M23.915,36c-2.099-0.046-3.877-0.961-5.347-2.497c-0.469-0.49-0.964-0.806-1.626-0.99
			c-1.508-0.419-2.936-1.052-4.337-1.762c-0.972-0.492-1.248-1.167-1.125-2.202c0.329-2.77,1.206-5.344,2.732-7.665
			c0.49-0.745,0.51-1.116-0.17-1.792c-2.24-2.225-1.991-5.153,0.413-6.682c0.951-0.605,1.693-0.614,2.248,0.465
			c0.512,0.995,1.048,1.429,2.212,0.644c1.271-0.857,2.776-0.686,4.14-0.107c0.709,0.301,1.24,0.259,1.934-0.022
			c1.469-0.595,3.017-0.655,4.382,0.254c0.812,0.542,1.201,0.328,1.68-0.366c1.128-1.634,1.817-1.676,3.254-0.279
			c1.674,1.627,1.614,4.131-0.287,6.035c-0.684,0.686-0.733,1.09-0.202,1.892c1.483,2.241,2.319,4.741,2.687,7.412
			c0.162,1.174-0.092,2.037-1.246,2.519c-0.319,0.133-0.602,0.359-0.925,0.477c-2.433,0.882-4.813,1.804-6.782,3.618
			C26.618,35.811,25.274,35.984,23.915,36z M35.061,26.801c-0.363,0.241-0.618,0.397-0.858,0.572
			c-1.064,0.776-2.237,1.337-3.48,1.757c-0.344,0.116-0.733,0.177-0.889-0.252c-0.161-0.444,0.202-0.601,0.539-0.729
			c0.244-0.093,0.492-0.174,0.734-0.271c1.137-0.459,2.159-1.103,3.143-1.836c0.774-0.576,0.46-1.238,0.1-1.699
			c-0.433-0.554-0.7,0.196-0.985,0.405c-0.6,0.439-1.196,0.866-1.892,1.14c-0.407,0.161-0.89,0.414-1.12-0.147
			c-0.208-0.505,0.298-0.625,0.652-0.778c0.769-0.33,1.409-0.845,2.058-1.364c0.581-0.465,0.738-0.92,0.257-1.529
			c-1.065-1.347-1.695-2.898-2.194-4.527c-0.187-0.611-0.535-1.195-0.905-1.724c-1.299-1.855-3.473-2.356-5.404-1.19
			c-0.599,0.362-0.947,0.434-1.59,0.03c-1.921-1.207-4.088-0.716-5.421,1.115c-0.699,0.961-1.15,2.043-1.427,3.196
			c-0.154,0.639-0.402,1.212-0.803,1.754c-1.634,2.209-1.511,2.691,0.906,3.99c0.191,0.103,0.391,0.19,0.591,0.277
			c0.365,0.159,0.809,0.312,0.551,0.824c-0.196,0.39-0.597,0.277-0.93,0.15c-0.906-0.346-1.706-0.867-2.397-1.545
			c-0.413-0.405-0.596-0.31-0.811,0.21c-0.251,0.607-0.238,1.023,0.331,1.459c1.082,0.83,2.243,1.486,3.519,1.957
			c0.384,0.142,1.015,0.212,0.834,0.784c-0.21,0.663-0.767,0.316-1.212,0.179c-1.46-0.449-2.694-1.334-3.98-2.162
			c-0.728,2.528-0.677,2.649,1.483,3.626c0.396,0.179,0.792,0.367,1.204,0.5c2.864,0.928,2.128,1.139,3.513-1.287
			c0.494-0.865,0.905-1.784,1.285-2.707c0.421-1.025,0.886-2.054,0.825-3.232c-2.133,0.497-3.616-0.734-3.391-2.738
			c0.084,0.022,0.174,0.031,0.251,0.069c0.897,0.44,1.795,0.881,2.688,1.328c1.795,0.899,1.796,0.901,1.34,2.838
			c-0.07,0.296-0.167,0.585-0.242,0.88c-0.056,0.219-0.039,0.405,0.171,0.57c0.543,0.428,3.043,0.527,3.683,0.042
			c0.795-0.602-0.123-1.246-0.059-1.89c0.038-0.377-0.104-0.77-0.144-1.158c-0.034-0.333,0.095-0.586,0.412-0.739
			c1.383-0.666,2.764-1.338,4.267-2.066c-0.018,1.099-0.339,1.877-1.048,2.464c-0.734,0.608-1.576,0.805-2.587,0.3
			c0.229,2.019,0.905,3.668,1.772,5.216c1.899,3.389,0.765,3.315,4.886,1.75C35.749,29.673,35.714,29.582,35.061,26.801z
			 M19.864,32.844c0.532-0.167,1.101-0.268,1.598-0.515c2.8-1.396,2.294-2.163,0.492-3.788c-0.032-0.029-0.07-0.051-0.102-0.08
			c-0.41-0.365-0.699-0.375-0.977,0.191c-0.514,1.048-1.085,2.068-1.656,3.087C18.801,32.487,19.136,32.751,19.864,32.844z
			 M26.66,28.182c-0.082,0.034-0.171,0.053-0.238,0.102c-0.766,0.57-1.686,1.159-1.811,2.102c-0.118,0.89,0.803,1.366,1.548,1.718
			c0.619,0.293,1.282,0.544,1.952,0.667c0.761,0.14,1.083-0.224,0.691-0.976c-0.56-1.072-1.135-2.135-1.712-3.198
			C26.993,28.421,26.929,28.189,26.66,28.182z M15.255,18.741c0.34-0.835,0.502-1.717,0.994-2.336
			c0.873-1.097,0.515-1.839-0.255-2.762c-0.466-0.56-0.73-0.554-1.238-0.175C13.018,14.764,13.18,16.93,15.255,18.741z
			 M32.711,18.753c2.02-1.706,2.293-3.742,0.743-5.085c-0.314-0.272-0.801-0.901-1.141-0.322c-0.391,0.667-1.579,1.084-1.041,2.096
			C31.826,16.483,32.29,17.55,32.711,18.753z M20.692,33.74c1.187,1.511,5.058,1.669,6.622,0.033c-0.7-0.327-1.385-0.691-2.104-0.97
			c-0.589-0.228-0.959-1.437-1.874-0.388c-0.514,0.59-1.287,0.858-2.03,1.107C21.102,33.591,20.901,33.666,20.692,33.74z"/>
		<path class="st2" d="M24.062,18.272c-0.228-0.128-0.426-0.21-0.59-0.335c-0.763-0.585-1.588-1.042-2.53-1.266
			c-0.32-0.076-0.607-0.222-0.548-0.593c0.071-0.445,0.433-0.502,0.799-0.418c0.72,0.165,1.438,0.395,2.019,0.843
			c0.586,0.451,1.019,0.375,1.608-0.009c0.567-0.37,1.249-0.573,1.895-0.81c0.342-0.125,0.736-0.111,0.869,0.307
			c0.141,0.443-0.194,0.603-0.562,0.687C25.905,16.933,24.987,17.583,24.062,18.272z"/>
		<path class="st2" d="M19.127,17.792c1.474,0.314,2.817,0.895,3.937,1.927c0.255,0.235,0.568,0.495,0.267,0.878
			c-0.299,0.381-0.618,0.184-0.895-0.063c-1.001-0.891-2.18-1.413-3.474-1.71c-0.343-0.079-0.744-0.174-0.657-0.64
			C18.386,17.75,18.753,17.713,19.127,17.792z"/>
		<path class="st2" d="M25.03,20.825c-0.102-0.064-0.278-0.123-0.373-0.245c-0.195-0.249-0.087-0.494,0.113-0.694
			c1.18-1.184,2.646-1.8,4.255-2.118c0.331-0.066,0.619,0.069,0.679,0.438c0.051,0.312-0.163,0.492-0.436,0.552
			c-1.472,0.324-2.801,0.929-3.93,1.945C25.279,20.757,25.181,20.768,25.03,20.825z"/>
	</g>
</g>
<g id="Слой_2">
	<g>
	</g>
	<g>
	</g>
	<g>
	</g>
	<g>
	</g>
	<g>
	</g>
	<g>
	</g>
	<g>
	</g>
	<g>
	</g>
	<g>
	</g>
	<g>
	</g>
	<g>
	</g>
	<g>
	</g>
	<g>
	</g>
	<g>
	</g>
	<g>
	</g>
</g>
</svg>
