<?xml version="1.0" encoding="utf-8"?>
<!-- Generator: Adobe Illustrator 25.2.0, SVG Export Plug-In . SVG Version: 6.00 Build 0)  -->
<svg version="1.1" xmlns="http://www.w3.org/2000/svg" xmlns:xlink="http://www.w3.org/1999/xlink" x="0px" y="0px"
	 viewBox="0 0 48 48" style="enable-background:new 0 0 48 48;" xml:space="preserve">
<style type="text/css">
	.st0{display:none;}
	.st1{display:inline;fill:#333333;}
	.st2{fill:#FFFFFF;}
	.st3{fill:none;stroke:#FFFFFF;stroke-width:0.5;stroke-linecap:round;stroke-miterlimit:10;}
</style>
<g id="Слой_3" class="st0">
	<rect class="st1" width="48" height="48"/>
</g>
<g id="Слой_1">
	<g>
		<path class="st2" d="M24,6c9.925,0,18,8.075,18,18s-8.075,18-18,18S6,33.925,6,24S14.075,6,24,6 M24,4C12.954,4,4,12.954,4,24
			s8.954,20,20,20s20-8.954,20-20S35.046,4,24,4L24,4z"/>
	</g>
	<path class="st2" d="M49.828,11.177"/>
	<path class="st2" d="M51.275,10.03"/>
	<path class="st3" d="M24,17.153"/>
	<path class="st3" d="M26.025,17.783"/>
	<path class="st2" d="M22.625,9.29c-0.302-0.003-0.557,0.223-0.591,0.523l-0.106,0.848c-0.458,0.242-0.769,0.607-0.964,1.008
		C18.201,11.841,16,14.14,16,16.945v18.824c0,0.127,0.041,0.251,0.117,0.353c0,0,0.561,0.718,1.826,1.35s3.273,1.239,6.293,1.239
		c2.68,0,4.482-0.223,5.63-0.453c1.147-0.229,1.692-0.492,1.692-0.492c0.199-0.1,0.325-0.303,0.325-0.526v-2.353
		c0-0.325-0.263-0.588-0.588-0.588v-3.814c0.489-0.118,0.888-0.238,1.118-0.339c0.265-0.116,0.446-0.257,0.446-0.257
		c0.128-0.112,0.201-0.273,0.201-0.442v-1.324c1.617,0,2.941-1.324,2.941-2.941v-1.176v-1.083c0-1.714-1.066-3.254-2.671-3.856
		l0.054,0.024l-1.5-0.744v-1.399c0-2.805-2.201-5.105-4.964-5.277c-0.195-0.4-0.506-0.765-0.964-1.008l-0.106-0.848
		c-0.034-0.307-0.299-0.535-0.608-0.523c-0.325,0.013-0.578,0.286-0.565,0.611c0.001,0.02,0.003,0.039,0.005,0.059l0.064,0.515
		h-1.608l0.064-0.515c0.045-0.322-0.179-0.619-0.501-0.664C22.675,9.292,22.65,9.291,22.625,9.29z M22.616,11.651h2.649
		c0.493,0.185,0.648,0.525,0.689,0.9c-0.075,0.032-0.14,0.066-0.281,0.101c-0.409,0.103-1.037,0.176-1.733,0.176
		c-0.696,0-1.323-0.073-1.733-0.176c-0.141-0.035-0.206-0.069-0.281-0.101C21.968,12.176,22.124,11.836,22.616,11.651z
		 M20.727,12.871c0.05,0.33,0.283,0.532,0.474,0.646c0.214,0.127,0.449,0.207,0.723,0.276c0.547,0.137,1.243,0.211,2.017,0.211
		c0.775,0,1.471-0.074,2.017-0.211c0.273-0.068,0.508-0.148,0.723-0.276c0.191-0.114,0.424-0.316,0.474-0.646
		c2.01,0.276,3.55,1.986,3.55,4.074v1.361c-0.444,0.155-1.375,0.403-2.941,0.403c-1.732,0-2.707-0.141-3.497-0.285
		s-1.437-0.303-2.385-0.303c-1.942,0-3.529,1.587-3.529,3.529v2.941c0,1.942,1.587,3.529,3.529,3.529h10v0.963
		c-0.183,0.077-0.48,0.186-1.008,0.301c-1.116,0.244-3.139,0.501-6.639,0.501c-0.967,0-1.814-0.066-2.552-0.173
		c-0.054-0.008-0.101,0.017-0.155,0.013c-0.179-0.078-0.386-0.061-0.55,0.044c-1.444,0.157-2.625,1.339-2.625,2.858v0.028
		c0,1.579,1.073,2.913,2.56,3.344c0.112,0.095,0.255,0.145,0.401,0.14c0.001,0,0.001,0.001,0.002,0.001
		c0.845,0.135,1.813,0.216,2.919,0.216c0.164,0,0.258-0.016,0.416-0.017c0.128,0.039,0.264,0.033,0.388-0.016
		c1.286-0.026,2.347-0.091,3.204-0.193c0,0,0.001,0,0.001,0c0.125,0.023,0.254,0.005,0.368-0.052
		c0.428-0.058,0.932-0.111,1.252-0.175c0.511-0.102,0.477-0.13,0.754-0.219c0.029,0.005,0.058,0.008,0.087,0.008v1.111
		c-0.137,0.058-0.259,0.137-1.071,0.3c-1.059,0.212-2.785,0.43-5.4,0.43c-2.863,0-4.678-0.57-5.766-1.114
		c-0.998-0.499-1.241-0.851-1.293-0.919V16.945C17.176,14.858,18.717,13.147,20.727,12.871z M21.882,19.298
		c0.817,0,1.346,0.135,2.174,0.285c0.827,0.15,1.911,0.303,3.709,0.303c2.056,0,3.12-0.398,3.478-0.546l1.618,0.802
		c0.018,0.009,0.036,0.017,0.055,0.024c0.633,0.237,1.141,0.68,1.475,1.232c-0.402-0.207-0.851-0.335-1.332-0.335h-8.824
		c-1.617,0-2.941,1.324-2.941,2.941v1.176c0,0.663,0.231,1.271,0.605,1.765h-0.017c-1.306,0-2.353-1.047-2.353-2.353v-2.941
		C19.529,20.345,20.576,19.298,21.882,19.298z M24.235,22.24h0.588c0.908,0,1.682,0.512,2.075,1.259
		c0.021,0.075,0.056,0.145,0.105,0.207c0.11,0.274,0.173,0.572,0.173,0.887c0,0.315-0.063,0.613-0.173,0.887
		c-0.048,0.061-0.084,0.132-0.105,0.207c-0.393,0.748-1.167,1.259-2.075,1.259h-0.588c-0.981,0-1.765-0.783-1.765-1.765h0.294
		c0.162,0,0.294-0.132,0.294-0.294v-0.588c0-0.162-0.132-0.294-0.294-0.294h-0.294C22.471,23.023,23.254,22.24,24.235,22.24z
		 M30.118,22.24c1.306,0,2.353,1.047,2.353,2.353c0,1.306-1.047,2.353-2.353,2.353c-0.849,0-1.578-0.451-1.991-1.124
		c0.144-0.384,0.226-0.797,0.226-1.229c0-0.433-0.082-0.846-0.226-1.229C28.54,22.691,29.269,22.24,30.118,22.24z M32.738,22.24
		h0.321c0.981,0,1.765,0.783,1.765,1.765v1.176c0,0.981-0.783,1.765-1.765,1.765h-0.321c0.563-0.626,0.909-1.45,0.909-2.353
		C33.647,23.689,33.301,22.865,32.738,22.24z M29.235,24.004c-0.162,0-0.294,0.132-0.294,0.294v0.588
		c0,0.162,0.132,0.294,0.294,0.294h0.588c0.162,0,0.294-0.132,0.294-0.294v-0.588c0-0.162-0.132-0.294-0.294-0.294H29.235z
		 M30.118,30.677v3.938c-0.21,0.059-0.117,0.062-0.483,0.136c-0.174,0.035-0.484,0.062-0.694,0.097v-4.003
		C29.415,30.796,29.753,30.736,30.118,30.677z M21.882,30.902c0.715,0.089,1.471,0.161,2.353,0.161v4.118
		c-0.902,0-1.651-0.078-2.353-0.173V30.902z M27.765,30.93v4.081c-0.641,0.066-1.48,0.095-2.353,0.122v-4.114
		C26.276,31,27.093,30.976,27.765,30.93z M20.706,30.965v3.733c-0.711-0.408-1.176-1.176-1.176-2.043v-0.028
		C19.529,31.844,20.029,31.202,20.706,30.965z"/>
</g>
<g id="Слой_2">
	<g>
	</g>
	<g>
	</g>
	<g>
	</g>
	<g>
	</g>
	<g>
	</g>
	<g>
	</g>
	<g>
	</g>
	<g>
	</g>
	<g>
	</g>
	<g>
	</g>
	<g>
	</g>
	<g>
	</g>
	<g>
	</g>
	<g>
	</g>
	<g>
	</g>
</g>
</svg>
