<?xml version="1.0" encoding="utf-8"?>
<!-- Generator: Adobe Illustrator 25.2.0, SVG Export Plug-In . SVG Version: 6.00 Build 0)  -->
<svg version="1.1" xmlns="http://www.w3.org/2000/svg" xmlns:xlink="http://www.w3.org/1999/xlink" x="0px" y="0px"
	 viewBox="0 0 48 48" style="enable-background:new 0 0 48 48;" xml:space="preserve">
<style type="text/css">
	.st0{display:none;}
	.st1{display:inline;fill:#333333;}
	.st2{fill:#FFFFFF;}
</style>
<g id="Слой_3" class="st0">
	<rect class="st1" width="48" height="48"/>
</g>
<g id="Слой_1">
	<g>
		<path class="st2" d="M24,6c9.925,0,18,8.075,18,18s-8.075,18-18,18S6,33.925,6,24S14.075,6,24,6 M24,4C12.954,4,4,12.954,4,24
			s8.954,20,20,20s20-8.954,20-20S35.046,4,24,4L24,4z"/>
	</g>
</g>
<g id="Слой_2">
	<g>
		<g>
			<path class="st2" d="M36,23.037c-0.862,2.083-2.511,3.123-4.638,3.614c-2.118,0.489-2.115,0.53-2.388,2.639
				c-0.119,0.92-0.613,1.202-1.423,0.818c-0.832-0.395-1.588-0.97-2.442-1.295c-2.613-0.994-5.319-1.301-8.039-0.543
				c-0.697,0.194-1.369,0.758-1.869,1.316c-0.755,0.844-1.204,0.943-1.889,0.005c-1.531-2.097-1.49-4.431-0.873-6.807
				c0.2-0.771,0.538-1.506,0.809-2.249c-0.411-0.492-0.854-0.957-1.208-1.482c-0.108-0.159,0.029-0.483,0.054-0.732
				c0.237,0.073,0.529,0.084,0.701,0.233c0.355,0.308,0.647,0.689,1.029,1.111c2.076-2.249,4.586-2.176,7.188-1.566
				c1.715,0.402,3.418,0.853,5.125,1.282c0.551-1.963,1.045-2.095,2.615-0.847c0.481,0.383,1.074,0.694,1.665,0.857
				c2.079,0.574,4.048,1.322,5.582,2.921C36,22.554,36,22.795,36,23.037z M28.189,27.316c-0.511-0.065-0.953-0.093-1.384-0.181
				c-1.05-0.214-1.856-0.771-2.245-1.797c-0.079-0.207,0.056-0.496,0.093-0.747c0.232,0.081,0.601,0.098,0.675,0.254
				c0.69,1.469,1.972,1.566,3.286,1.357c1.301-0.208,2.598-0.527,3.846-0.95c0.654-0.222,1.29-0.681,1.77-1.188
				c1.015-1.07,0.992-1.563-0.319-2.198c-2.149-1.04-4.394-1.882-6.625-2.818c0,0.11-0.02,0.308,0.003,0.502
				c0.121,1.008-0.304,1.246-1.193,0.871c-0.184-0.077-0.383-0.122-0.579-0.166c-2.308-0.517-4.598-1.163-6.932-1.504
				c-1.82-0.265-3.435,0.407-4.365,2.148c-0.908,1.701-1.417,3.528-1.127,5.458c0.141,0.939,0.573,1.834,0.798,2.52
				c1.13-0.607,1.993-1.309,2.97-1.552c3.436-0.855,6.773-0.506,9.902,1.267c0.355,0.201,0.735,0.357,1.155,0.559
				C28.02,28.459,28.095,27.95,28.189,27.316z"/>
			<path class="st2" d="M30.954,21.992c-0.463,0.352-0.803,0.791-1.024,0.737c-0.322-0.078-0.559-0.51-0.833-0.791
				c0.272-0.244,0.533-0.664,0.819-0.682C30.19,21.24,30.49,21.641,30.954,21.992z"/>
		</g>
	</g>
	<g>
	</g>
	<g>
	</g>
	<g>
	</g>
	<g>
	</g>
	<g>
	</g>
	<g>
	</g>
	<g>
	</g>
	<g>
	</g>
	<g>
	</g>
	<g>
	</g>
	<g>
	</g>
	<g>
	</g>
	<g>
	</g>
	<g>
	</g>
	<g>
	</g>
</g>
</svg>
