<?xml version="1.0" encoding="utf-8"?>
<!-- Generator: Adobe Illustrator 25.2.0, SVG Export Plug-In . SVG Version: 6.00 Build 0)  -->
<svg version="1.1" xmlns="http://www.w3.org/2000/svg" xmlns:xlink="http://www.w3.org/1999/xlink" x="0px" y="0px"
	 viewBox="0 0 48 48" style="enable-background:new 0 0 48 48;" xml:space="preserve">
<style type="text/css">
	.st0{display:none;}
	.st1{display:inline;fill:#333333;}
	.st2{fill:#FFFFFF;}
</style>
<g id="Слой_3" class="st0">
	<rect class="st1" width="48" height="48"/>
</g>
<g id="Слой_1">
	<g>
		<path class="st2" d="M24,6c9.925,0,18,8.075,18,18s-8.075,18-18,18S6,33.925,6,24S14.075,6,24,6 M24,4C12.954,4,4,12.954,4,24
			s8.954,20,20,20s20-8.954,20-20S35.046,4,24,4L24,4z"/>
	</g>
	<path class="st2" d="M49.828,11.177"/>
	<path class="st2" d="M51.275,10.03"/>
	<path class="st2" d="M22.286,10.576v4.57h-1.142v1.142h1.865l-6.966,11.997c-0.013-0.001-0.027-0.001-0.04-0.001
		c0,0-2.005-0.038-2.952-1.459c-0.106-0.163-0.287-0.262-0.482-0.261c-0.316,0.001-0.57,0.258-0.569,0.574
		c0,0.115,0.035,0.227,0.1,0.321c0.941,1.411,2.473,1.804,3.309,1.917l-2.683,4.621h7.172l-0.359,2.152l-1.685-0.422
		c-0.306-0.076-0.616,0.11-0.693,0.416s0.11,0.616,0.416,0.693l2.285,0.571c0.306,0.076,0.616-0.11,0.692-0.416
		c0.004-0.015,0.007-0.03,0.009-0.045l0.492-2.95h6.457l0.492,2.95c0.052,0.311,0.346,0.522,0.657,0.47
		c0.03-0.005,0.059-0.012,0.087-0.022l1.714-0.571c0.3-0.1,0.462-0.423,0.362-0.723s-0.423-0.462-0.723-0.362c0,0,0,0-0.001,0
		l-1.08,0.36l-0.35-2.103h6.601l-2.683-4.621c0.836-0.113,2.368-0.506,3.309-1.917c0.179-0.26,0.113-0.616-0.147-0.794
		c-0.1-0.069-0.219-0.104-0.339-0.1c-0.188,0.005-0.362,0.103-0.464,0.261c-0.947,1.421-2.952,1.459-2.952,1.459
		c-0.013,0-0.026,0-0.039,0.001l-6.967-11.997h1.865v-1.142h-1.142v-4.57H22.286z M23.429,11.719h1.142v3.427h-1.142V11.719z
		 M24,16.855l2.328,4.011c-0.623-0.339-1.389-0.579-2.328-0.579c-0.939,0-1.705,0.237-2.326,0.573L24,16.855z M24,21.429
		c2.4,0,3.18,1.66,3.328,2.001c-0.145,0.343-0.909,1.997-3.328,1.997c-2.421,0-3.185-1.659-3.329-1.999
		C20.815,23.088,21.579,21.429,24,21.429z M24,21.429c0,0-0.571,1-0.571,1.999c0,1,0.571,1.999,0.571,1.999s0.571-1,0.571-1.999
		C24.571,22.429,24,21.429,24,21.429z M19.756,24.164c0.522,0.843,1.811,2.406,4.244,2.406s3.722-1.563,4.244-2.406l2.392,4.12
		H17.364L19.756,24.164z M16.701,29.426h3.871v1.142h-4.535L16.701,29.426z M21.715,29.426h4.57v1.142h-4.57V29.426z M27.427,29.426
		h3.871l0.664,1.142h-4.535V29.426z M32.568,31.612l0.721,1.242h-2.434v-1.142h1.714V31.612z M15.375,31.711h1.771v1.142h-2.434
		L15.375,31.711z M18.288,31.711h5.141v1.142h-2.758c-0.041-0.007-0.083-0.01-0.125-0.008c-0.023,0.001-0.046,0.004-0.068,0.008
		h-2.19V31.711z M24.571,31.711h5.141v1.142h-1.625c-0.026-0.004-0.052-0.007-0.078-0.008c-0.035-0.001-0.069,0.002-0.104,0.008
		h-3.334V31.711z"/>
</g>
<g id="Слой_2">
	<g>
	</g>
	<g>
	</g>
	<g>
	</g>
	<g>
	</g>
	<g>
	</g>
	<g>
	</g>
	<g>
	</g>
	<g>
	</g>
	<g>
	</g>
	<g>
	</g>
	<g>
	</g>
	<g>
	</g>
	<g>
	</g>
	<g>
	</g>
	<g>
	</g>
</g>
</svg>
