<?xml version="1.0" encoding="utf-8"?>
<!-- Generator: Adobe Illustrator 25.2.0, SVG Export Plug-In . SVG Version: 6.00 Build 0)  -->
<svg version="1.1" xmlns="http://www.w3.org/2000/svg" xmlns:xlink="http://www.w3.org/1999/xlink" x="0px" y="0px"
	 viewBox="0 0 48 48" style="enable-background:new 0 0 48 48;" xml:space="preserve">
<style type="text/css">
	.st0{display:none;}
	.st1{display:inline;fill:#333333;}
	.st2{fill:#FFFFFF;}
</style>
<g id="Слой_3" class="st0">
	<rect class="st1" width="48" height="48"/>
</g>
<g id="Слой_1">
	<g>
		<path class="st2" d="M24,6c9.925,0,18,8.075,18,18s-8.075,18-18,18S6,33.925,6,24S14.075,6,24,6 M24,4C12.954,4,4,12.954,4,24
			s8.954,20,20,20s20-8.954,20-20S35.046,4,24,4L24,4z"/>
	</g>
	<path class="st2" d="M49.828,11.177"/>
	<path class="st2" d="M51.275,10.03"/>
	<path class="st2" d="M24,12c-1.877,0-3.345,0.367-4.384,1.109c-0.14,0.1-0.269,0.209-0.391,0.323
		c-0.481-0.207-1.008-0.289-1.511-0.289h-6.286c-0.316,0-0.571,0.256-0.571,0.572c0,0.136,0.049,0.268,0.137,0.372
		c0,0,2.763,3.323,6.461,4.052c-0.065,0.183-0.109,0.376-0.147,0.577c-0.105,0.545-0.136,1.132-0.15,1.682
		c-0.798,0.842-1.463,2.008-1.984,3.058c-0.591-0.162-1.231,0.15-1.45,0.733l-0.49,1.309c-0.231,0.617,0.088,1.32,0.705,1.551
		l0.371,0.138c-0.097,0.249-0.178,0.531-0.205,0.838c-0.027,0.297,0.001,0.626,0.153,0.94c0.152,0.314,0.433,0.589,0.797,0.76
		c0.428,0.201,0.865,0.215,1.243,0.118l-0.719,3.065l-0.004,0.029c-0.119,0.914,0.438,1.796,1.325,2.066
		C18.283,35.425,21.287,36,24,36s5.717-0.575,7.1-0.996c0.886-0.27,1.444-1.153,1.325-2.067l-0.003-0.028l-0.72-3.065
		c0.378,0.097,0.816,0.081,1.243-0.119c0.364-0.171,0.645-0.446,0.797-0.76c0.152-0.314,0.18-0.643,0.153-0.94
		c-0.028-0.307-0.108-0.589-0.205-0.837l0.371-0.14c0.617-0.231,0.936-0.934,0.705-1.551l-0.49-1.309l-0.001-0.001
		c-0.219-0.582-0.858-0.894-1.449-0.732c-0.521-1.05-1.186-2.216-1.984-3.058c-0.014-0.55-0.044-1.137-0.15-1.682
		c-0.039-0.201-0.082-0.394-0.147-0.577c3.698-0.73,6.461-4.052,6.461-4.052c0.205-0.24,0.177-0.601-0.063-0.806
		c-0.104-0.089-0.235-0.137-0.372-0.137h-6.286c-0.503,0-1.031,0.082-1.511,0.289c-0.122-0.114-0.251-0.223-0.391-0.323
		C27.345,12.367,25.877,12,24,12z M24,13.143c1.725,0,2.958,0.351,3.72,0.896c0.762,0.545,1.112,1.257,1.112,2.247
		c0,0.47-0.119,0.881-0.323,1.253c-0.973,0.552-1.772,1.318-4.509,1.318c-2.736,0-3.535-0.765-4.508-1.317
		c-0.204-0.373-0.324-0.784-0.324-1.254c0-0.989,0.349-1.702,1.112-2.247C21.042,13.494,22.275,13.143,24,13.143z M12.925,14.286
		h4.789c0.267,0,0.531,0.04,0.773,0.107c-0.302,0.565-0.462,1.207-0.462,1.893c0,0.28,0.039,0.548,0.096,0.809
		C15.76,16.814,13.937,15.254,12.925,14.286z M30.286,14.286h4.789c-1.012,0.968-2.835,2.528-5.196,2.809
		c0.057-0.261,0.096-0.529,0.096-0.809c0-0.686-0.16-1.328-0.462-1.893C29.755,14.325,30.019,14.286,30.286,14.286z M21.699,15.429
		c-0.678,0.017-1.364,0.351-1.661,0.944c0,0.678,2.035,2.035,3.391,0.679C23.429,15.907,22.57,15.406,21.699,15.429z M26.301,15.429
		c-0.872-0.022-1.73,0.478-1.73,1.623c1.356,1.356,3.391,0,3.391-0.679C27.665,15.78,26.979,15.446,26.301,15.429z M23.429,17.714
		c0,0.315,0.256,0.571,0.571,0.571c0.315,0,0.571-0.256,0.571-0.571H23.429z M18.615,18.381C19.41,18.744,20.607,20,24,20
		c0.351,0,0.586-0.061,0.893-0.086c-0.046,0.326-0.046,0.602-0.285,1.164c-0.177,0.419-0.422,0.806-0.724,1.059
		c-0.252,0.211-0.558,0.319-0.951,0.334c-0.578-0.029-0.999-0.019-1.981-0.184c-0.758-0.128-1.509-0.317-2.013-0.554
		c-0.252-0.118-0.438-0.248-0.537-0.354s-0.116-0.16-0.116-0.237c0-0.657,0.021-1.576,0.144-2.211
		C18.485,18.647,18.567,18.463,18.615,18.381z M29.385,18.381c0.048,0.083,0.13,0.266,0.185,0.551
		c0.123,0.635,0.144,1.554,0.144,2.211c0,0.077-0.017,0.131-0.116,0.237c-0.099,0.106-0.285,0.236-0.537,0.354
		c-0.504,0.236-1.255,0.426-2.013,0.554c-1.02,0.171-1.49,0.164-2.056,0.191c0.244-0.314,0.526-0.616,0.669-0.953
		c0.366-0.865,0.392-1.445,0.42-1.725C27.937,19.429,28.782,18.656,29.385,18.381z M17.392,21.938
		c0.053,0.08,0.112,0.155,0.175,0.223c0.133,0.142,0.286,0.26,0.45,0.365l-0.427,1.823l-1.331-0.499
		C16.593,23.194,16.981,22.52,17.392,21.938z M30.608,21.938c0.41,0.583,0.799,1.256,1.134,1.912l-1.33,0.499l-0.427-1.824
		c0.163-0.105,0.316-0.222,0.449-0.364C30.497,22.093,30.556,22.018,30.608,21.938z M19.077,23.011
		c0.53,0.178,1.108,0.306,1.685,0.403c0.672,0.113,0.782,0.08,1.334,0.124v11.228c-1.998-0.177-3.948-0.576-4.863-0.855
		c-0.353-0.108-0.57-0.449-0.523-0.82L19.077,23.011z M28.924,23.011l2.367,10.083c0.044,0.37-0.171,0.71-0.523,0.817
		c-0.915,0.279-2.865,0.677-4.864,0.855V23.538c0.552-0.044,0.662-0.011,1.334-0.124C27.815,23.317,28.394,23.189,28.924,23.011z
		 M23.239,23.644c0.154,0.006,0.751,0.07,0.751,0.07H24h0.01c0,0,0.598-0.065,0.751-0.07v11.193c-0.256,0.01-0.512,0.02-0.761,0.02
		c-0.249,0-0.505-0.01-0.761-0.02V23.644z M14.826,24.55c0.014-0.006,0.031-0.005,0.05,0.002l2.45,0.917l-0.352,1.496l-2.633-0.987
		c-0.039-0.015-0.051-0.041-0.037-0.08l0.49-1.309C14.802,24.57,14.812,24.556,14.826,24.55z M33.174,24.55
		c0.014,0.006,0.024,0.02,0.031,0.039l0.49,1.309c0.015,0.039,0.002,0.066-0.037,0.08l-2.632,0.987l-0.352-1.496l2.449-0.917
		C33.143,24.545,33.16,24.544,33.174,24.55z M15.388,27.592l1.3,0.487c-0.122,0.208-0.288,0.438-0.464,0.565
		c-0.206,0.148-0.339,0.21-0.684,0.048c-0.166-0.078-0.217-0.146-0.254-0.223c-0.038-0.078-0.057-0.188-0.044-0.339
		C15.257,27.967,15.316,27.777,15.388,27.592z M32.613,27.592c0.073,0.185,0.131,0.376,0.145,0.537
		c0.014,0.151-0.006,0.262-0.044,0.339c-0.038,0.078-0.088,0.145-0.254,0.223c-0.345,0.162-0.478,0.1-0.684-0.048
		c-0.176-0.126-0.341-0.356-0.463-0.564L32.613,27.592z"/>
</g>
<g id="Слой_2">
	<g>
	</g>
	<g>
	</g>
	<g>
	</g>
	<g>
	</g>
	<g>
	</g>
	<g>
	</g>
	<g>
	</g>
	<g>
	</g>
	<g>
	</g>
	<g>
	</g>
	<g>
	</g>
	<g>
	</g>
	<g>
	</g>
	<g>
	</g>
	<g>
	</g>
</g>
</svg>
