<?xml version="1.0" encoding="utf-8"?>
<!-- Generator: Adobe Illustrator 25.2.0, SVG Export Plug-In . SVG Version: 6.00 Build 0)  -->
<svg version="1.1" xmlns="http://www.w3.org/2000/svg" xmlns:xlink="http://www.w3.org/1999/xlink" x="0px" y="0px"
	 viewBox="0 0 48 48" style="enable-background:new 0 0 48 48;" xml:space="preserve">
<style type="text/css">
	.st0{display:none;}
	.st1{display:inline;fill:#333333;}
	.st2{fill:#FFFFFF;}
	.st3{fill:none;stroke:#FFFFFF;stroke-width:0.5;stroke-linecap:round;stroke-miterlimit:10;}
</style>
<g id="Слой_3" class="st0">
	<rect class="st1" width="48" height="48"/>
</g>
<g id="Слой_1">
	<g>
		<path class="st2" d="M24,6c9.925,0,18,8.075,18,18s-8.075,18-18,18S6,33.925,6,24S14.075,6,24,6 M24,4C12.954,4,4,12.954,4,24
			s8.954,20,20,20s20-8.954,20-20S35.046,4,24,4L24,4z"/>
	</g>
	<path class="st3" d="M24,17.153"/>
	<path class="st3" d="M26.025,17.783"/>
	<g>
		<path class="st2" d="M16.869,27.543c-0.746,1.854-0.366,3.478-0.472,5.064c-0.029,0.438,0.159,1.01-0.391,1.206
			c-0.568,0.202-0.773-0.374-1.036-0.717c-6.325-8.225-2.05-19.634,8.091-21.608c1.439-0.28,1.486-0.245,1.677,1.357
			c0.893-0.435,1.159-1.788,2.563-1.453c2.313,0.553,4.487,1.325,6.272,2.932c0.547,0.492,0.013,0.899-0.337,1.251
			c-1.327,1.333-2.663,2.656-3.983,3.996c-0.29,0.294-0.823,0.569-0.18,1.065c1.95,1.505,2.794,3.686,3.588,5.901
			c0.355,0.991,0.752,1.968,1.163,2.937c0.337,0.793,0.054,1.192-0.75,1.11c-1.257-0.128-1.083,0.428-0.725,1.239
			c0.498,1.13,0.936,2.288,1.367,3.447c0.134,0.36,0.487,0.743,0.125,1.148c-0.421,0.471-0.863,0.088-1.262-0.05
			c-1.861-0.642-3.736-1.256-5.554-2.006c-0.906-0.374-1.631-0.294-2.441,0.171c-1.882,1.081-3.873,1.88-6.058,2.089
			c-1.559,0.149-1.771-0.106-1.205-1.515C18.325,32.61,17.923,30.21,16.869,27.543z M32.473,35.161
			c-0.341-0.894-0.537-1.454-0.768-2.001c-0.736-1.747-0.975-3.651-3.562-4.141c-1.968-0.373-1.96-2.224-0.247-3.398
			c0.841-0.576,1.849-0.634,2.806-0.873c-1.537-3.737-4.925-5.423-8.339-4.239c-3.454,1.198-4.998,4.538-3.856,8.363
			c0.549,1.84,0.703,3.697,0.155,5.553c-0.273,0.924,0.101,0.988,0.859,0.881c1.907-0.271,3.547-1.208,5.209-2.069
			c0.718-0.372,1.331-0.419,2.072-0.134C28.581,33.786,30.384,34.408,32.473,35.161z M15.173,31.191
			c0.322-0.934-0.042-1.667-0.197-2.413c-1.555-7.472,5.516-13.837,12.75-11.383c1.282,0.435,2.001,0.266,2.896-0.7
			c1.986-2.142,2.043-2.089-0.657-3.296c-2.753-1.231-2.957-1.185-4.945,1.002c-0.291,0.32-0.515,0.887-1.068,0.694
			c-0.556-0.193-0.431-0.774-0.381-1.2c0.139-1.177-0.271-1.375-1.379-1.066C14.149,15.075,10.676,23.922,15.173,31.191z
			 M15.907,26.671c0.735-0.611,1.094-1.237,1.306-2.02c0.774-2.855,2.672-4.598,5.501-5.375c1.417-0.389,2.82-0.307,4.181,0.192
			c0.601,0.22,1.079,0.076,1.244-0.438c0.181-0.565-0.466-0.534-0.796-0.648C21.865,16.485,15.939,20.697,15.907,26.671z
			 M32.634,29.481c-0.278-0.701-0.508-1.283-0.74-1.864c-0.697-1.747-1.622-2.072-3.199-1.106c-0.339,0.208-0.807,0.409-0.73,0.89
			c0.068,0.424,0.476,0.677,0.869,0.796c1.015,0.307,2.344-0.133,2.903,1.272C31.774,29.56,32.241,29.481,32.634,29.481z"/>
	</g>
</g>
<g id="Слой_2">
	<g>
	</g>
	<g>
	</g>
	<g>
	</g>
	<g>
	</g>
	<g>
	</g>
	<g>
	</g>
	<g>
	</g>
	<g>
	</g>
	<g>
	</g>
	<g>
	</g>
	<g>
	</g>
	<g>
	</g>
	<g>
	</g>
	<g>
	</g>
	<g>
	</g>
</g>
</svg>
