<?xml version="1.0" encoding="utf-8"?>
<!-- Generator: Adobe Illustrator 25.2.0, SVG Export Plug-In . SVG Version: 6.00 Build 0)  -->
<svg version="1.1" xmlns="http://www.w3.org/2000/svg" xmlns:xlink="http://www.w3.org/1999/xlink" x="0px" y="0px"
	 viewBox="0 0 48 48" style="enable-background:new 0 0 48 48;" xml:space="preserve">
<style type="text/css">
	.st0{display:none;}
	.st1{display:inline;fill:#333333;}
	.st2{fill:#FFFFFF;}
</style>
<g id="Слой_3" class="st0">
	<rect class="st1" width="48" height="48"/>
</g>
<g id="Слой_1">
	<g>
		<path class="st2" d="M24,6c9.925,0,18,8.075,18,18s-8.075,18-18,18S6,33.925,6,24S14.075,6,24,6 M24,4C12.954,4,4,12.954,4,24
			s8.954,20,20,20s20-8.954,20-20S35.046,4,24,4L24,4z"/>
	</g>
	<path class="st2" d="M49.828,11.177"/>
	<path class="st2" d="M51.275,10.03"/>
	<path class="st2" d="M35.268,19.581c-0.012,0.938-0.101,1.793,0.24,2.581c0.951,2.197,0.41,4.261-0.668,6.19
		c-2.5,4.473-6.341,7.074-11.412,7.844c-0.217,0.033-0.438,0.048-0.656,0.078c-6.996,0.943-11.928-4.341-10.538-11.311
		c0.708-3.549,2.242-6.569,5.574-8.375c0.565-0.306,0.834-0.761,0.849-1.379c0.016-0.659-0.004-1.32,0.013-1.979
		c0.017-0.658,0.258-1.215,0.885-1.506c0.629-0.292,1.095,0.079,1.538,0.458c0.267,0.229,0.539,0.458,0.772,0.72
		c1.836,2.061,4.389,1.987,6.8,2.179c0.845,0.068,1.317-0.939,1.888-1.52c1.673-1.7,2.533-1.577,3.482,0.657
		C34.775,15.956,35.522,17.713,35.268,19.581z M30.719,15.099c-0.734,0.246-1.099,1.372-1.796,1.175
		c-1.514-0.427-3.071-0.172-4.559-0.506c-1.772-0.397-3.388-0.321-4.838,0.92c-0.497,0.425-1.081,0.755-1.65,1.087
		c-1.494,0.873-2.547,2.138-3.343,3.648c-0.258,0.489-0.528,0.941,0.228,1.259c0.284,0.119,0.536,0.371,0.369,0.735
		c-0.156,0.338-0.459,0.414-0.771,0.219c-0.636-0.397-0.726,0.071-0.858,0.508c-0.374,1.238-0.473,2.504-0.367,3.787
		c0.306,3.727,2.822,6.897,6.12,7.262c5.743,0.635,10.441-1.389,13.909-6.071c0.79-1.067,1.374-2.262,1.609-3.582
		c0.313-1.761-0.682-2.687-2.448-2.338c-0.989,0.195-1.748,0.81-2.521,1.386c-1.054,0.786-2.206,1.266-3.532,1.285
		c-0.395,0.006-0.887,0.06-0.939-0.467c-0.054-0.55,0.429-0.589,0.833-0.577c1.263,0.037,2.289-0.491,3.246-1.258
		c0.756-0.606,1.6-1.059,2.524-1.4c0.781-0.289,1.897,0.431,2.267-0.301c0.351-0.693,0.041-1.719,0.025-2.598
		c-0.003-0.132,0.016-0.264,0.01-0.396c-0.082-1.751-0.741-3.329-1.486-4.877c-0.111-0.23-0.281-0.474-0.584-0.461
		c-0.088,0.004-0.257,0.194-0.24,0.258c0.424,1.566-1.198,3.546,0.959,4.765c0.239,0.135,0.372,0.395,0.198,0.677
		c-0.2,0.324-0.467,0.298-0.798,0.161c-1.079-0.446-1.754-1.664-1.561-2.838C30.8,16.095,30.92,15.625,30.719,15.099z
		 M19.749,15.078c0.824-0.255,1.469-0.455,2.205-0.683c-0.187-0.178-0.29-0.329-0.433-0.402c-0.593-0.304-0.958-1.397-1.592-1.038
		C19.408,13.249,19.826,14.247,19.749,15.078z"/>
	<path class="st2" d="M16.734,24.34c0.617,0.208,1.791-0.217,2.116,0.949c0.215,0.772-1.498,2.196-2.458,2.188
		c-0.836-0.007-1.705-0.971-1.626-1.884C14.858,24.525,15.582,24.247,16.734,24.34z"/>
	<path class="st2" d="M22.176,28.967c-1.69,1.226-5.51,1.163-6.728,0.108c-0.266-0.231-0.308-0.408-0.048-0.62
		c0.383-0.312,0.887-0.662,1.31-0.34C18.294,29.321,20.062,29.408,22.176,28.967z"/>
	<path class="st2" d="M18.402,32.335c-0.364-0.082-0.728-0.101-1.03-0.247c-0.514-0.249-1.405-0.448-1.102-1.163
		c0.342-0.808,0.915,0.036,1.388,0.141c0.295,0.065,0.589,0.134,0.881,0.213c0.344,0.094,0.707,0.203,0.592,0.676
		C19.034,32.355,18.658,32.239,18.402,32.335z"/>
	<g>
		<path class="st2" d="M24.431,21.02c0.856-0.02,1.442,0.458,1.948,1.064c0.067,0.08,0.089,0.283,0.035,0.364
			c-0.443,0.658-1.018,1.163-1.833,1.267c-0.706,0.09-1.191-0.313-1.581-0.846c-0.468-0.638,0.017-1.608,0.903-1.803
			C24.074,21.028,24.254,21.034,24.431,21.02z M24.063,21.593c-0.652,0.044-0.941,0.594-0.594,1.135
			C23.671,22.341,23.86,21.981,24.063,21.593z"/>
		<path class="st2" d="M17.228,22.988c-0.567-0.011-1.243-0.913-0.948-1.431c0.249-0.438,0.752-0.932,1.202-0.997
			c0.405-0.059,0.891,0.428,1.337,0.683c0.038,0.022,0.055,0.105,0.058,0.162C18.905,21.949,17.809,22.999,17.228,22.988z
			 M17.364,21.089c-0.698,0.164-0.879,0.699-0.414,1.205C17.087,21.895,17.226,21.492,17.364,21.089z"/>
	</g>
</g>
<g id="Слой_2">
	<g>
	</g>
	<g>
	</g>
	<g>
	</g>
	<g>
	</g>
	<g>
	</g>
	<g>
	</g>
	<g>
	</g>
	<g>
	</g>
	<g>
	</g>
	<g>
	</g>
	<g>
	</g>
	<g>
	</g>
	<g>
	</g>
	<g>
	</g>
	<g>
	</g>
</g>
</svg>
