<?xml version="1.0" encoding="utf-8"?>
<!-- Generator: Adobe Illustrator 25.2.0, SVG Export Plug-In . SVG Version: 6.00 Build 0)  -->
<svg version="1.1" xmlns="http://www.w3.org/2000/svg" xmlns:xlink="http://www.w3.org/1999/xlink" x="0px" y="0px"
	 viewBox="0 0 48 48" style="enable-background:new 0 0 48 48;" xml:space="preserve">
<style type="text/css">
	.st0{display:none;}
	.st1{display:inline;fill:#333333;}
	.st2{fill:#FFFFFF;}
	.st3{fill:none;stroke:#FFFFFF;stroke-width:0.5;stroke-linecap:round;stroke-miterlimit:10;}
</style>
<g id="Слой_3" class="st0">
	<rect class="st1" width="48" height="48"/>
</g>
<g id="Слой_1">
	<g>
		<path class="st2" d="M24,6c9.925,0,18,8.075,18,18s-8.075,18-18,18S6,33.925,6,24S14.075,6,24,6 M24,4C12.954,4,4,12.954,4,24
			s8.954,20,20,20s20-8.954,20-20S35.046,4,24,4L24,4z"/>
	</g>
	<path class="st3" d="M24,17.153"/>
	<path class="st3" d="M26.025,17.783"/>
	<g>
		<path class="st2" d="M26.711,26.396c-0.48-1.121-1.049-2.192-1.328-3.376c-0.316-1.338,0.247-2.092,1.636-2.071
			c2.572,0.04,5.079,0.485,7.501,1.432c-0.253-0.856-0.253-0.855-1.283-1.275c-1.129-0.46-2.238-0.72-1.98-2.527
			c0.137-0.96-1.17-1.708-1.995-2.385c-0.583-0.478-1.262-0.837-2.049-1.347c-0.165,0.884-0.195,1.662-0.881,2.128
			c-0.721,0.49-1.487,0.24-2.231,0.145c-0.673-0.086-1.473-0.601-1.522,0.692c-0.004,0.115-0.304,0.297-0.479,0.314
			c-1.753,0.169-3.259,1.597-5.232,0.892c0.768,1.257-0.748,3.03-3.601,4.27c0.584,0.172,1.437,0.012,1.281,0.726
			c-0.277,1.262,0.156,2.867-1.671,3.526c1.796,0.388,2.559,2.353,1.532,4.265c1.062-0.796,1.46-0.208,1.835,0.453
			c0.732,1.292,1.471,2.581,1.613,4.103c0.043,0.465,0.097,1.027-0.497,1.121c-0.631,0.099-0.689-0.438-0.723-0.924
			c-0.072-1.047-0.567-1.947-1.002-2.873c-0.505-1.076-0.958-0.933-1.583-0.077c-0.372,0.509-0.344,1.743-1.296,1.332
			c-0.868-0.375-0.29-1.356-0.176-2.077c0.121-0.771,0.444-1.472,0.906-2.09c0.429-0.573,0.268-1.199-0.161-1.472
			c-0.533-0.338-0.865,0.306-1.192,0.681c-0.033,0.038-0.049,0.09-0.079,0.13c-0.341,0.44-0.284,1.5-1.094,1.183
			c-0.852-0.333-0.389-1.242-0.263-1.912c0.215-1.141,0.72-2.157,1.666-2.847c0.614-0.447,0.75-1.003,0.812-1.688
			c-0.707-0.138-1.095,0.258-1.483,0.649c-0.268,0.27-0.549,0.499-0.922,0.194c-0.343-0.281-0.23-0.606-0.102-0.97
			c0.526-1.499,1.456-2.589,3.038-2.966c0.753-0.179,1.287-0.541,1.656-1.341c-0.894-0.217-1.678,0.13-2.456,0.358
			c-0.427,0.125-0.815,0.261-1.066-0.203c-0.265-0.489,0.149-0.759,0.454-1.004c1.398-1.126,2.972-1.834,4.798-1.674
			c0.993,0.087,1.925,0.076,2.917-0.572c-1.35-0.834-2.646-1.715-3.612-2.975c-0.628-0.819-1.111-1.711-1.455-2.682
			c-0.146-0.413-0.232-0.832,0.229-1.076c0.506-0.267,0.732,0.139,0.943,0.497c1.899,3.23,5.063,4.266,8.469,4.857
			c0.406,0.07,1.007,0.331,1.218-0.217c0.242-0.629-0.376-0.911-0.812-1.112c-0.831-0.383-1.701-0.686-2.567-0.987
			c-0.394-0.137-0.861-0.2-0.803-0.741c0.057-0.528,0.5-0.578,0.931-0.551c4.132,0.265,7.781,1.865,9.669,5.524
			c0.829,1.607,1.801,2.141,3.102,2.795c2.492,1.253,2.877,3.009,1.239,5.375c-0.728-0.903-1.88-1.38-2.327-2.581
			c-0.594,0.363-0.176,0.988-0.708,1.277c-0.4-0.53-0.813-1.079-1.338-1.776c-0.127,0.497-0.216,0.847-0.356,1.392
			c-0.515-0.647-0.961-1.207-1.421-1.786c-0.459,0.291-0.133,0.939-0.648,1.146c-0.702-0.401-1.141-1.326-2.169-1.198
			c2.067,2.354,4.084,3.648,6.959,3.995c1.624,0.196,0.196,1.266,1.066,1.769c-3.421-1.122-6.142-2.762-8.639-4.868
			c0.171,0.992,0.68,1.689,1.512,2.171c0.319,0.185,1.215,0.158,0.356,0.862c-0.126,0.103,0.053,0.213,0.15,0.324
			c0.326,0.37,1.857-0.264,0.96,1.129c0.518,0.179,1.036,0.357,1.666,0.574c-4.018,1.183-5.396,0.334-8.532-5.132
			c-1.974,1.334-2.069,3.556-0.195,4.988c1.231,0.941,2.707,1.424,4.075,2.105c2.216,1.103,3.896,2.625,4.338,5.192
			c0.069,0.401,0.076,0.814,0.086,1.223c0.009,0.346-0.182,0.617-0.511,0.662c-0.432,0.059-0.684-0.226-0.686-0.636
			c-0.013-3.367-2.353-4.75-4.981-5.91c-1.073-0.474-2.155-0.943-3.095-1.664c-2.535-1.944-2.285-5.824,0.447-7.39
			c0.794-0.455,1.274-0.409,1.623,0.534C24.734,23.914,25.428,25.335,26.711,26.396z"/>
		<path class="st2" d="M30.162,18.995c-1.19,0.347-1.691-0.323-2.356-1.035C28.924,17.78,29.662,18.044,30.162,18.995z"/>
	</g>
</g>
<g id="Слой_2">
	<g>
	</g>
	<g>
	</g>
	<g>
	</g>
	<g>
	</g>
	<g>
	</g>
	<g>
	</g>
	<g>
	</g>
	<g>
	</g>
	<g>
	</g>
	<g>
	</g>
	<g>
	</g>
	<g>
	</g>
	<g>
	</g>
	<g>
	</g>
	<g>
	</g>
</g>
</svg>
