<?xml version="1.0" encoding="utf-8"?>
<!-- Generator: Adobe Illustrator 25.2.0, SVG Export Plug-In . SVG Version: 6.00 Build 0)  -->
<svg version="1.1" xmlns="http://www.w3.org/2000/svg" xmlns:xlink="http://www.w3.org/1999/xlink" x="0px" y="0px"
	 viewBox="0 0 48 48" style="enable-background:new 0 0 48 48;" xml:space="preserve">
<style type="text/css">
	.st0{display:none;}
	.st1{display:inline;fill:#333333;}
	.st2{fill:#FFFFFF;}
</style>
<g id="Слой_3" class="st0">
	<rect class="st1" width="48" height="48"/>
</g>
<g id="Слой_1">
	<g>
		<path class="st2" d="M24,6c9.925,0,18,8.075,18,18s-8.075,18-18,18S6,33.925,6,24S14.075,6,24,6 M24,4C12.954,4,4,12.954,4,24
			s8.954,20,20,20s20-8.954,20-20S35.046,4,24,4L24,4z"/>
	</g>
	<path class="st2" d="M49.828,11.177"/>
	<path class="st2" d="M51.275,10.03"/>
	<g>
		<path class="st2" d="M33.137,32.898c-1.34-2.97-1.308-5.803,0.671-8.507c0.876-1.197,0.943-2.526,0.554-3.919
			c-0.19-0.681-0.319-1.379-0.501-2.062c-0.297-1.121-0.293-2.483-2.026-2.466c-0.185,0.002-0.385-0.436-0.559-0.683
			c-3.076-4.382-9.145-4.343-12.215,0.084c-0.218,0.314-0.307,0.749-0.854,0.663c-0.923-0.144-1.34,0.504-1.742,1.165
			c-0.661,1.086-0.586,2.284-0.561,3.482c0.042,2.001,1.163,3.589,2,5.282c0.459,0.929,0.58,1.586-0.721,1.889
			c-0.906,0.211-1.69,0.762-2.252,1.553c-1.302,1.832-1.39,3.967-1.519,6.092c-0.026,0.435,0.213,0.499,0.573,0.515
			c0.446,0.019,0.478-0.229,0.501-0.578c0.058-0.883,0.106-1.772,0.242-2.645c0.331-2.123,1.248-3.769,3.758-4.181
			c-0.172,2.049-0.345,4.061-0.51,6.074c-0.046,0.56-0.245,1.184,0.654,1.304c1.646,0.219,2.972-0.876,3.019-2.525
			c0.032-1.108,0.055-2.216,0.112-3.323c0.025-0.494-0.025-1.034,0.636-1.677c-0.288,2.482,0.722,4.295,1.805,6.058
			c0.82,1.334,1.535,1.345,2.622,0.205c0.956-1.002,1.429-2.284,2.046-3.685c0.371,1.138,0.674,2.081,0.986,3.02
			c0.69,2.075,0.691,2.073,2.538,0.844c0.059-0.039,0.167-0.005,0.278-0.005c0.029,0.108,0.094,0.23,0.088,0.348
			c-0.027,0.515,0.08,0.87,0.719,0.761c0.689-0.118,0.368-0.645,0.31-0.933C33.644,34.316,33.443,33.577,33.137,32.898z
			 M21.012,28.446c-0.613,1.399-0.333,2.969-0.418,4.466c-0.022,0.397,0.027,0.811-0.067,1.189c-0.13,0.521-0.617,0.621-1.062,0.589
			c-0.604-0.044-0.308-0.522-0.292-0.819c0.051-0.928,0.108-1.859,0.221-2.781c0.314-2.566,0.148-5.021-1.364-7.251
			c-0.961-1.418-1.112-3.05-1.037-4.713c0.037-0.817,0.286-1.532,1.223-2.215c-0.035,0.536-0.042,0.836-0.075,1.133
			c-0.289,2.602,0.304,4.949,2.17,6.838C21.375,25.961,21.642,27.009,21.012,28.446z M27.42,31.671
			c-0.414,1.021-0.919,2.545-1.825,2.517c-1.068-0.033-1.112-1.768-2.014-2.827c1.443,0.326,2.632,0.592,3.815,0.108
			C27.412,31.594,27.433,31.639,27.42,31.671z M28.282,28.521c-0.318,1.486-1.132,2.111-2.447,2.161
			c-1.422,0.054-2.142-0.755-2.39-2.006c-0.376-1.897-1.321-3.441-2.628-4.822c-1.256-1.327-1.733-2.955-1.679-4.339
			c0.013-4.118,2.786-6.655,6.573-6.428c3.457,0.207,6.07,3.379,5.671,6.877c-0.153,1.338-0.572,2.587-1.224,3.76
			C29.316,25.239,28.648,26.811,28.282,28.521z M31.403,34.193c-0.629,0.209-0.528-0.48-0.615-0.752
			c-0.419-1.302-0.774-2.626-1.105-3.954c-0.379-1.518,0.125-2.883,0.845-4.187c1.165-2.111,2.129-4.279,2.075-6.795
			c0.71,2.086,1.412,4.089-0.142,6.21c-1.62,2.211-1.862,4.722-0.722,7.295c0.16,0.36,0.29,0.752,0.336,1.14
			C32.133,33.642,31.818,34.055,31.403,34.193z"/>
		<path class="st2" d="M23.718,25.541c0.01-0.747-0.059-1.6,0.882-1.83c1.035-0.253,1.49,0.525,1.853,1.303
			c0.144,0.309,0.222,0.666,0.253,1.009c0.126,1.409-0.387,2.292-1.318,2.326c-0.916,0.034-1.563-0.797-1.667-2.151
			C23.703,25.981,23.718,25.76,23.718,25.541z"/>
		<path class="st2" d="M27.548,20.534c-0.373-0.054-0.575-0.213-0.578-0.51c-0.005-0.368,0.23-0.57,0.582-0.526
			c0.276,0.034,0.461,0.244,0.437,0.547C27.966,20.351,27.728,20.456,27.548,20.534z"/>
		<path class="st2" d="M21.626,20.002c0.325,0.092,0.534,0.246,0.505,0.553c-0.034,0.36-0.274,0.554-0.624,0.478
			c-0.271-0.059-0.452-0.286-0.393-0.584C21.169,20.167,21.388,20.032,21.626,20.002z"/>
	</g>
</g>
<g id="Слой_2">
	<g>
	</g>
	<g>
	</g>
	<g>
	</g>
	<g>
	</g>
	<g>
	</g>
	<g>
	</g>
	<g>
	</g>
	<g>
	</g>
	<g>
	</g>
	<g>
	</g>
	<g>
	</g>
	<g>
	</g>
	<g>
	</g>
	<g>
	</g>
	<g>
	</g>
</g>
</svg>
