<?xml version="1.0" encoding="utf-8"?>
<!-- Generator: Adobe Illustrator 25.2.0, SVG Export Plug-In . SVG Version: 6.00 Build 0)  -->
<svg version="1.1" xmlns="http://www.w3.org/2000/svg" xmlns:xlink="http://www.w3.org/1999/xlink" x="0px" y="0px"
	 viewBox="0 0 48 48" style="enable-background:new 0 0 48 48;" xml:space="preserve">
<style type="text/css">
	.st0{display:none;}
	.st1{display:inline;fill:#333333;}
	.st2{fill:#FFFFFF;}
</style>
<g id="Слой_3" class="st0">
	<rect class="st1" width="48" height="48"/>
</g>
<g id="Слой_1">
	<g>
		<path class="st2" d="M24,6c9.925,0,18,8.075,18,18s-8.075,18-18,18S6,33.925,6,24S14.075,6,24,6 M24,4C12.954,4,4,12.954,4,24
			s8.954,20,20,20s20-8.954,20-20S35.046,4,24,4L24,4z"/>
	</g>
	<path class="st2" d="M49.828,11.177"/>
	<path class="st2" d="M51.275,10.03"/>
	<g>
		<path class="st2" d="M25.017,25.035c1.012,2.098,2.619,2.894,4.854,2.465c0.247-0.047,0.608,0.316,0.865,0.547
			c0.406,0.364,0.71,0.875,1.164,1.148c0.871,0.524,1.89,0.826,2.693-0.026c0.708-0.752,0.488-2.723-0.194-3.412
			c-1.745-1.761-3.498-3.505-4.058-6.079c-0.094-0.434-0.591-0.813-0.967-1.146c-1.176-1.042-2.889-1.814-1.514-4.023
			c-0.189-0.039-0.378-0.078-0.567-0.116c-0.312,0.401-0.597,0.828-0.946,1.194c-0.281,0.294-0.637,0.724-0.964,0.728
			c-1.43,0.017-2.861-0.098-4.248-0.164c-0.027-0.036,0.034,0.096,0.138,0.174c0.344,0.259,0.704,0.499,1.057,0.746
			c-0.435,0.164-0.859,0.408-1.309,0.472c-0.757,0.108-1.531,0.101-2.307,0.142c0.026,0.125,0.016,0.24,0.063,0.274
			c0.378,0.27,0.767,0.525,1.153,0.784c-0.467,0.167-0.925,0.366-1.403,0.49c-0.449,0.117-0.92,0.155-1.741,0.285
			c0.582,0.131,0.853,0.13,1.047,0.252c0.219,0.138,0.368,0.388,0.547,0.589c-0.187,0.145-0.353,0.356-0.565,0.424
			c-0.715,0.227-1.446,0.402-2.299,0.632c0.566,0.412,0.959,0.698,1.352,0.984c-0.675,0.353-1.349,0.706-2.083,1.09
			c0.804,0.749,0.251,1.202-0.552,1.57c-0.233,0.107-0.463,0.257-0.708,0.289c-0.504,0.067-1.016,0.069-1.525,0.097
			c0.313-0.409,0.627-0.817,1.025-1.337c-1.251-1.3,0.587-1.144,1.162-1.737c-0.171-0.356-0.357-0.742-0.58-1.207
			c0.679-0.263,1.256-0.487,1.845-0.715c-0.881-1.413-0.881-1.413,1.836-2.095c-0.255-0.496-0.504-0.982-0.859-1.675
			c1.306,0,2.378,0,3.484,0c-0.137-0.738-0.249-1.34-0.407-2.185c0.573,0.095,0.96,0.142,1.338,0.225
			c0.914,0.201,1.818,0.535,2.739,0.583c0.533,0.028,1.103-0.362,1.631-0.617c0.906-0.438,1.757-1.02,2.698-1.348
			c0.809-0.282,1.371,0.022,1.006,1.049c-0.1,0.281-0.23,0.568-0.245,0.858c-0.023,0.457,0.04,0.919,0.067,1.379
			c0.404-0.122,0.861-0.16,1.202-0.379c1.473-0.945,2.9-1.962,4.373-2.908c0.313-0.201,0.748-0.214,1.126-0.314
			c-0.101,0.406-0.097,0.885-0.32,1.207c-0.997,1.438-2.012,2.869-3.114,4.227c-0.678,0.835-0.739,1.677-0.176,2.458
			c1.017,1.413,2.112,2.78,3.267,4.084c0.989,1.117,1.25,3.804,0.355,4.985c-0.644,0.849-3.054,1.057-4.165,0.02
			c-1.126-1.051-2.348-1.323-3.752-1.615c-1.05-0.218-1.974-1.045-3.07-1.666c-1.059,0.818-1.468,2.036-1.053,3.571
			c0.371,1.37,0.694,2.772-0.139,4.088c-0.179,0.283-0.613,0.406-0.93,0.602c0.005-0.343,0.01-0.686,0.015-1.029
			c0.016-1.159,0.202-2.346,0.013-3.47C21.97,28.094,22.688,26.353,25.017,25.035z M30.82,18.372
			c0.59-0.815,1.123-1.552,1.656-2.289c-0.065-0.051-0.131-0.102-0.196-0.152c-0.762,0.516-1.523,1.033-2.371,1.607
			C30.226,17.828,30.492,18.072,30.82,18.372z"/>
		<path class="st2" d="M29.63,22.938c-0.363-0.499-0.806-0.861-0.744-1.08c0.095-0.335,0.538-0.571,0.834-0.85
			c0.244,0.284,0.666,0.559,0.681,0.854C30.416,22.144,30.005,22.447,29.63,22.938z"/>
	</g>
</g>
<g id="Слой_2">
	<g>
	</g>
	<g>
	</g>
	<g>
	</g>
	<g>
	</g>
	<g>
	</g>
	<g>
	</g>
	<g>
	</g>
	<g>
	</g>
	<g>
	</g>
	<g>
	</g>
	<g>
	</g>
	<g>
	</g>
	<g>
	</g>
	<g>
	</g>
	<g>
	</g>
</g>
</svg>
