<?xml version="1.0" encoding="utf-8"?>
<!-- Generator: Adobe Illustrator 25.2.0, SVG Export Plug-In . SVG Version: 6.00 Build 0)  -->
<svg version="1.1" xmlns="http://www.w3.org/2000/svg" xmlns:xlink="http://www.w3.org/1999/xlink" x="0px" y="0px"
	 viewBox="0 0 48 48" style="enable-background:new 0 0 48 48;" xml:space="preserve">
<style type="text/css">
	.st0{display:none;}
	.st1{display:inline;fill:#333333;}
	.st2{fill:#FFFFFF;}
</style>
<g id="Слой_3" class="st0">
	<rect class="st1" width="48" height="48"/>
</g>
<g id="Слой_1">
	<g>
		<path class="st2" d="M24,6c9.925,0,18,8.075,18,18s-8.075,18-18,18S6,33.925,6,24S14.075,6,24,6 M24,4C12.954,4,4,12.954,4,24
			s8.954,20,20,20s20-8.954,20-20S35.046,4,24,4L24,4z"/>
	</g>
	<path class="st2" d="M49.828,11.177"/>
	<path class="st2" d="M51.275,10.03"/>
	<g>
		<path class="st2" d="M14.401,32.308c-0.158,0.419-0.373,0.755-0.897,0.734c-0.532-0.021-0.766-0.342-0.758-0.816
			c0.01-0.587,0.34-0.958,0.947-0.853C14.153,31.453,14.367,31.842,14.401,32.308z"/>
		<path class="st2" d="M35.269,32.325c-0.094,0.476-0.34,0.765-0.869,0.714c-0.503-0.048-0.793-0.378-0.773-0.827
			c0.024-0.56,0.398-0.94,0.987-0.845C35.088,31.443,35.283,31.844,35.269,32.325z"/>
		<path class="st2" d="M15.92,29.079c0.467-0.002,0.783,0.206,0.824,0.729c0.04,0.504-0.256,0.879-0.68,0.93
			c-0.537,0.064-0.976-0.271-0.988-0.86C15.067,29.395,15.404,29.127,15.92,29.079z"/>
		<path class="st2" d="M32.16,30.758c-0.478-0.004-0.795-0.246-0.884-0.716c-0.091-0.478,0.096-0.862,0.602-0.945
			c0.57-0.094,0.986,0.174,1.051,0.76C32.984,30.362,32.576,30.579,32.16,30.758z"/>
		<path class="st2" d="M23.999,12c0.473,0.048,0.801,0.307,0.82,0.779c0.024,0.586-0.342,0.928-0.915,0.873
			c-0.45-0.043-0.76-0.373-0.726-0.861C23.211,12.318,23.517,12.056,23.999,12z"/>
		<path class="st2" d="M21.406,13.522c0.001,0.595-0.271,0.933-0.718,0.988c-0.567,0.069-0.949-0.256-0.939-0.849
			c0.008-0.473,0.325-0.766,0.801-0.789C21.051,12.848,21.259,13.215,21.406,13.522z"/>
		<path class="st2" d="M27.535,14.532c-0.495,0.02-0.816-0.249-0.915-0.689c-0.107-0.477,0.184-0.846,0.621-0.948
			c0.568-0.132,0.953,0.184,1.017,0.757C28.314,14.147,27.972,14.398,27.535,14.532z"/>
		<path class="st2" d="M18.048,15.437c0.463,0.098,0.787,0.357,0.764,0.843c-0.029,0.588-0.423,0.906-0.982,0.806
			c-0.432-0.078-0.742-0.439-0.659-0.923C17.249,15.711,17.557,15.438,18.048,15.437z"/>
		<path class="st2" d="M30.85,16.246c-0.022,0.479-0.294,0.804-0.752,0.841c-0.579,0.047-0.936-0.303-0.904-0.885
			c0.026-0.465,0.353-0.764,0.834-0.753C30.508,15.459,30.77,15.767,30.85,16.246z"/>
		<path class="st2" d="M17.971,19.68c-0.022,0.479-0.294,0.804-0.752,0.841c-0.579,0.047-0.936-0.303-0.904-0.885
			c0.026-0.465,0.353-0.764,0.834-0.753C17.629,18.894,17.891,19.202,17.971,19.68z"/>
		<path class="st2" d="M30.963,18.873c0.436,0.125,0.775,0.372,0.728,0.867c-0.056,0.579-0.442,0.894-1.007,0.771
			c-0.435-0.095-0.734-0.462-0.633-0.941C30.144,19.127,30.461,18.855,30.963,18.873z"/>
		<path class="st2" d="M17.86,22.29c0.602,0.061,0.93,0.32,0.949,0.792c0.024,0.586-0.342,0.928-0.915,0.873
			c-0.45-0.043-0.753-0.372-0.729-0.861C17.189,22.601,17.561,22.416,17.86,22.29z"/>
		<path class="st2" d="M30.078,23.98c-0.488,0.001-0.825-0.271-0.88-0.718c-0.069-0.567,0.254-0.95,0.848-0.938
			c0.472,0.009,0.77,0.326,0.789,0.801C30.854,23.615,30.535,23.87,30.078,23.98z"/>
		<path class="st2" d="M20.541,24.879c0.479,0.021,0.804,0.293,0.841,0.751c0.046,0.578-0.303,0.937-0.885,0.904
			c-0.463-0.026-0.763-0.355-0.754-0.835C19.753,25.219,20.061,24.957,20.541,24.879z"/>
		<path class="st2" d="M27.55,26.575c-0.601-0.088-0.926-0.344-0.933-0.823c-0.008-0.593,0.371-0.919,0.939-0.847
			C28,24.96,28.3,25.298,28.262,25.786C28.223,26.279,27.84,26.448,27.55,26.575z"/>
		<path class="st2" d="M24.068,27.414c-0.488,0.001-0.825-0.271-0.88-0.718c-0.069-0.567,0.254-0.95,0.848-0.938
			c0.472,0.009,0.77,0.326,0.789,0.801C24.844,27.049,24.525,27.304,24.068,27.414z"/>
		<path class="st2" d="M18.719,27.441c0.602,0.061,0.93,0.32,0.949,0.792c0.024,0.586-0.342,0.928-0.915,0.873
			c-0.45-0.043-0.753-0.372-0.729-0.861C18.048,27.753,18.42,27.568,18.719,27.441z"/>
		<path class="st2" d="M29.21,27.457c0.463,0.098,0.787,0.357,0.764,0.843c-0.029,0.588-0.423,0.906-0.982,0.806
			c-0.432-0.078-0.742-0.439-0.659-0.923C28.411,27.731,28.719,27.458,29.21,27.457z"/>
		<path class="st2" d="M12.047,36c-0.488,0.001-0.825-0.271-0.88-0.718c-0.069-0.567,0.254-0.95,0.848-0.938
			c0.472,0.009,0.77,0.326,0.789,0.801C12.823,35.635,12.504,35.89,12.047,36z"/>
		<path class="st2" d="M35.864,34.318c0.611,0.027,0.937,0.299,0.973,0.757c0.046,0.578-0.303,0.937-0.885,0.904
			c-0.463-0.026-0.757-0.354-0.756-0.835C35.198,34.646,35.569,34.453,35.864,34.318z"/>
	</g>
</g>
<g id="Слой_2">
	<g>
	</g>
	<g>
	</g>
	<g>
	</g>
	<g>
	</g>
	<g>
	</g>
	<g>
	</g>
	<g>
	</g>
	<g>
	</g>
	<g>
	</g>
	<g>
	</g>
	<g>
	</g>
	<g>
	</g>
	<g>
	</g>
	<g>
	</g>
	<g>
	</g>
</g>
</svg>
